<?xml version="1.0" encoding="UTF-8"?>
<svg viewBox="0 0 322 305" xmlns="http://www.w3.org/2000/svg">
 <g fill="#FFF" stroke="#888" stroke-width="2">
  <path d="m116.65 10.897c-22.398 5.1827-33.055 34.289-18.866 51.752 11.78 16.606 39.788 19.172 54.073 4.1763 14.226-13.658 12.871-39.267-4.0705-50.442-8.7513-6.3024-20.611-8.5312-31.136-5.4871zm5.4534 11.671c15.194-4.5575 32.736 10.484 27.666 25.491-3.9183 14.529-24.574 21.604-36.827 11.798-9.7073-7.077-11.566-22.031-2.6797-30.468 3.1137-3.3563 7.3273-5.699 11.841-6.821z"/>
  <path d="m126.17 9.2074c-2.5416-0.014923-5.0628 0.25452-7.5 0.78125-0.50317 0.10875-1.0357 0.24281-1.5312 0.375-0.51155 0.13646-0.9978 0.24472-1.5 0.40625-16.497 4.2822-29.509 23.367-23.062 42.25 6.3262 19.298 28.721 27.631 45.062 21.688 16.335-4.5996 28.883-24.187 21.906-42.844-5.2949-14.717-19.65-22.576-33.375-22.656zm6.0312 23.844c2.07 0 3.75 1.624 3.75 3.625 1.5e-5 2.001-1.68 3.625-3.75 3.625s-3.75-1.624-3.75-3.625c1.5e-5 -2.001 1.68-3.625 3.75-3.625zm-13.25 1.125c2.07 0 3.75 1.624 3.75 3.625 1.5e-5 2.001-1.68 3.625-3.75 3.625s-3.75-1.624-3.75-3.625c1.5e-5 -2.001 1.68-3.625 3.75-3.625zm13.625 12.062c2.07 0 3.75 1.624 3.75 3.625 1.5e-5 2.001-1.68 3.625-3.75 3.625s-3.75-1.624-3.75-3.625c1.5e-5 -2.001 1.68-3.625 3.75-3.625zm-13.25 1.125c2.07 0 3.75 1.624 3.75 3.625 1.5e-5 2.001-1.68 3.625-3.75 3.625s-3.75-1.624-3.75-3.625c1.5e-5 -2.001 1.68-3.625 3.75-3.625z"/>
  <path d="m126.05 10.116c-2.1985 0.044006-4.3569 0.24733-6.5 0.6875-8.5724 1.7607-16.439 6.6342-21.562 14.219-10.246 15.169-5.6471 35.45 10.25 45.25 15.897 9.7995 37.097 5.4504 47.344-9.7188 10.246-15.169 5.6471-35.419-10.25-45.219-5.9614-3.6748-12.686-5.3508-19.281-5.2188zm6.5625 23.125c2.07 0 3.75 1.624 3.75 3.625s-1.68 3.625-3.75 3.625-3.75-1.624-3.75-3.625 1.68-3.625 3.75-3.625zm-13.25 1.125c2.07 0 3.75 1.624 3.75 3.625s-1.68 3.625-3.75 3.625-3.75-1.624-3.75-3.625 1.68-3.625 3.75-3.625zm13.625 12.062c2.07 0 3.75 1.624 3.75 3.625s-1.68 3.625-3.75 3.625-3.75-1.624-3.75-3.625 1.68-3.625 3.75-3.625zm-13.25 1.125c2.07 0 3.75 1.624 3.75 3.625s-1.68 3.625-3.75 3.625-3.75-1.624-3.75-3.625 1.68-3.625 3.75-3.625z"/>
  <path d="m125.77 16.804c-18.375-0.48805-33.449 21.54-24.281 38.031 8.4666 17.937 37.378 21.072 48.812 4.0625 8.7958-11.646 5.6265-30.094-7.1875-37.406-5.1091-3.3171-11.244-4.9681-17.344-4.6875zm6.9687 16.438c2.07 0 3.75 1.624 3.75 3.625s-1.68 3.625-3.75 3.625-3.75-1.624-3.75-3.625 1.68-3.625 3.75-3.625zm-13.25 1.125c2.07 0 3.75 1.624 3.75 3.625s-1.68 3.625-3.75 3.625-3.75-1.624-3.75-3.625 1.68-3.625 3.75-3.625zm13.625 12.062c2.07 0 3.75 1.624 3.75 3.625s-1.68 3.625-3.75 3.625-3.75-1.624-3.75-3.625 1.68-3.625 3.75-3.625zm-13.25 1.125c2.07 0 3.75 1.624 3.75 3.625s-1.68 3.625-3.75 3.625-3.75-1.624-3.75-3.625 1.68-3.625 3.75-3.625z"/>
  <path d="m125.57 16.873c-18.375-0.48807-33.449 21.54-24.281 38.031 8.4666 17.937 37.378 21.072 48.812 4.0625 8.7958-11.646 5.6265-30.094-7.1875-37.406-5.1091-3.3171-11.244-4.9681-17.344-4.6875zm6.9687 16.438c2.07 0 3.75 1.624 3.75 3.625s-1.68 3.625-3.75 3.625-3.75-1.624-3.75-3.625 1.68-3.625 3.75-3.625zm-13.25 1.125c2.07 0 3.75 1.624 3.75 3.625s-1.68 3.625-3.75 3.625-3.75-1.624-3.75-3.625 1.68-3.625 3.75-3.625zm13.625 12.062c2.07 0 3.75 1.624 3.75 3.625s-1.68 3.625-3.75 3.625-3.75-1.624-3.75-3.625 1.68-3.625 3.75-3.625zm-13.25 1.125c2.07 0 3.75 1.624 3.75 3.625s-1.68 3.625-3.75 3.625-3.75-1.624-3.75-3.625 1.68-3.625 3.75-3.625z"/>
  <path d="m133.93 46.605c-6.2737-2.2423-8.5954-2.2767-10.443-9.4236-1.2432-4.8095-8.0062-0.11905-6.4546 3.084 3.347 6.9092 8.6289 10.908 13.652 11.987 3.4889 0.75009 7.0309-4.2949 3.2457-5.6478z"/>
  <path d="m54.779 0.1391c-1.6583-0.014114-3.3557 0.21536-5.0312 0.71875l-28.281 8.5c-8.936 2.6847-13.966 12.033-11.281 20.969l8.6562 28.781c2.6847 8.9361 12.033 13.966 20.969 11.281l28.281-8.4688c8.936-2.6847 13.966-12.064 11.281-21l-8.6562-28.781c-2.1813-7.2605-8.7518-11.939-15.938-12zm-9.3438 16.75c0.36202-0.016968 0.72719 0 1.0938 0 11.73 0 21.25 8.792 21.25 19.625s-9.52 19.625-21.25 19.625-21.25-8.792-21.25-19.625c0-10.494 8.9335-19.099 20.156-19.625z"/>
  <path d="m54.654 0.0141c-1.6583-0.014114-3.3557 0.21536-5.0312 0.71875l-28.281 8.5c-8.936 2.6847-13.966 12.033-11.281 20.969l8.6562 28.781c2.6847 8.9361 12.033 13.966 20.969 11.281l28.281-8.4688c8.936-2.6847 13.966-12.064 11.281-21l-8.6562-28.781c-2.1813-7.2605-8.7517-11.939-15.938-12zm-18.438 27.969c2.346 0 4.25 1.932 4.25 4.3125s-1.904 4.3125-4.25 4.3125-4.25-1.932-4.25-4.3125 1.904-4.3125 4.25-4.3125zm14.375 8.1875c2.346 0 4.25 1.932 4.25 4.3125s-1.904 4.3125-4.25 4.3125-4.25-1.932-4.25-4.3125 1.904-4.3125 4.25-4.3125z"/>
  <path d="m54.123 1.1079c-1.6583-0.014114-3.3557 0.21538-5.0312 0.71875l-26.25 7.9062c-8.936 2.6847-13.966 12.033-11.281 20.969l8.1875 27.188c2.6847 8.9361 12.033 13.966 20.969 11.281l26.25-7.875c8.936-2.6847 13.966-12.064 11.281-21l-8.1875-27.188c-2.1813-7.2605-8.7517-11.939-15.938-12zm-17.906 27c2.346 0 4.25 1.932 4.25 4.3125s-1.904 4.3125-4.25 4.3125-4.25-1.932-4.25-4.3125 1.904-4.3125 4.25-4.3125zm14.375 8.1875c2.346 0 4.25 1.932 4.25 4.3125s-1.904 4.3125-4.25 4.3125-4.25-1.932-4.25-4.3125 1.904-4.3125 4.25-4.3125z"/>
  <path d="m50.623 4.3266c-1.6583-0.014114-3.3557 0.21536-5.0312 0.71875l-19.75 5.9375c-8.936 2.6847-13.966 12.033-11.281 20.969l6.6875 22.219c2.6847 8.9361 12.033 13.966 20.969 11.281l19.75-5.9062c8.936-2.6847 13.966-12.064 11.281-21l-6.6875-22.219c-2.1813-7.2605-8.7518-11.939-15.938-12zm-14.406 23.781c2.346 0 4.25 1.932 4.25 4.3125s-1.904 4.3125-4.25 4.3125-4.25-1.932-4.25-4.3125 1.904-4.3125 4.25-4.3125zm14.375 8.1875c2.346 0 4.25 1.932 4.25 4.3125s-1.904 4.3125-4.25 4.3125-4.25-1.932-4.25-4.3125 1.904-4.3125 4.25-4.3125z"/>
  <path d="m39.798 32.126a3.9913 3.9913 0 1 1 -7.9826 0"/>
  <path d="m54.559 40.434a3.9913 3.9913 0 1 1 -7.9826 0"/>
  <path d="m49.653 37.128c-2.9582-1.0038-8.2058-1.4076-9.5589-4.6506-1.3315-3.1912-7.2169-0.39247-6.4546 3.084 0.79575 3.6289 8.1626 5.5406 13.121 6.8608 2.5826 0.68759 5.4772-4.417 2.8922-5.2942z"/>
  <path d="m300.47 90.302c-19.919-15.893-53.786-4.5789-60.163 20.189-7.2225 22.056 9.4014 48.339 32.808 50.192 22.142 2.7494 44.67-16.58 43.424-39.295-0.15845-12.11-6.152-24.048-16.07-31.086zm-6.9908 13.033c14.466 10.043 12.578 36.023-4.5961 42.228-15.956 6.8716-36.428-6.1585-35.75-23.81-0.096954-13.494 12.335-25.713 26.079-23.928 5.1822 0.3418 10.182 2.3625 14.267 5.5104z"/>
  <path d="m301.13 90.949c-0.47147-0.35013-0.93478-0.69641-1.4229-1.0207-15.096-11.376-41.382-9.1999-54.304 9.8106-13.382 19.199-5.826 44.64 10.686 54.704 15.277 11.01 41.638 8.1166 53.992-11.196 12.096-18.416 5.6632-41.443-8.952-52.297zm-25.489 25.878c0.89206 0.77838 1.4708 1.9039 1.5667 3.1855 0.19183 2.5631-1.7124 4.7875-4.2411 4.9767-2.5287 0.1893-4.7276-1.7521-4.9195-4.3152-0.19183-2.5631 1.7124-4.7875 4.2411-4.9768 1.2643-0.094635 2.4607 0.35141 3.3528 1.1298zm12.898 10.6c0.89206 0.77835 1.5146 1.8983 1.6105 3.1798 0.19186 2.5631-1.7124 4.7875-4.2411 4.9768-2.5287 0.18927-4.7467-1.7274-4.9386-4.2905-0.19183-2.5631 1.7124-4.7875 4.2411-4.9768 1.2643-0.094635 2.436 0.33231 3.3281 1.1107z"/>
  <path d="m274.35 84.409c-20.83 1.7976-36.276 20.162-34.478 40.991 1.7976 20.83 20.162 36.276 40.991 34.478 20.83-1.7976 36.276-20.162 34.478-40.991-1.7976-20.83-20.162-36.276-40.991-34.478zm-2.2431 31.434c2.5264-0.21802 4.7561 1.6833 4.9771 4.2441 0.22098 2.5607-1.6501 4.8159-4.1764 5.034-2.5263 0.21802-4.7561-1.6833-4.9771-4.244-0.22098-2.5607 1.6501-4.816 4.1764-5.034zm13.04 10.449c2.5264-0.21802 4.7561 1.6833 4.9771 4.244 0.22098 2.5607-1.6501 4.816-4.1764 5.034-2.5263 0.21802-4.7561-1.6833-4.977-4.244-0.22101-2.5607 1.65-4.816 4.1764-5.034z"/>
  <path d="m277.29 120.51a4.6152 4.6152 0 1 1 -9.2304 0"/>
  <path d="m290.1 130.86a4.6152 4.6152 0 1 1 -9.2304 0"/>
  <path d="m106.38 86.936c-21.866 4.0764-33.684 32.635-20.934 50.783 10.474 17.172 37.334 21.114 51.901 6.8337 14.438-12.947 14.492-38.602-1.2447-50.602-8.1009-6.728-19.414-9.5386-29.722-7.0148zm4.6368 11.93c14.888-3.8062 30.998 12.087 25.314 26.832-4.5486 14.324-24.836 20.378-36.125 9.976-8.9813-7.549-9.9789-22.582-0.96493-30.575 3.1796-3.2004 7.3656-5.3339 11.776-6.2329z"/>
  <path d="m107.18 86.874c-0.50031 0.11118-0.99343 0.21921-1.4861 0.3559-16.129 3.467-29.671 21.906-24.46 41.091 5.0731 19.594 26.209 28.998 42.277 23.864 15.99-3.7921 29.1-22.685 23.366-41.669-5.288-18.31-24.187-27.088-39.697-23.642zm2.5914 31.289c1.0233-0.14499 2.0977 0.11108 3.0001 0.77124 1.8048 1.3203 2.191 3.8221 0.875 5.5846s-3.8535 2.1071-5.6583 0.78671c-1.8048-1.3203-2.191-3.8221-0.87498-5.5846 0.65798-0.88123 1.6349-1.413 2.6582-1.558zm14.363-2.4656c1.0233-0.14499 2.1189 0.079193 3.0214 0.73938 1.8048 1.3203 2.191 3.8221 0.87498 5.5846s-3.848 2.1335-5.6528 0.81317-2.191-3.822-0.87498-5.5846c0.65799-0.88126 1.6082-1.4076 2.6315-1.5526z"/>
  <path d="m87.594 100.71c-10.682 14.653-7.3381 35.127 7.4651 45.701s35.487 7.2636 46.17-7.3893c10.682-14.653 7.3381-35.127-7.4651-45.701s-35.487-7.2636-46.17 7.3892zm19.515 19.202c1.2957-1.7772 3.8242-2.1646 5.644-0.86459 1.8199 1.2999 2.2453 3.7973 0.94969 5.5745s-3.8242 2.1646-5.6441 0.86462c-1.8199-1.2999-2.2453-3.7973-0.94968-5.5745zm14.344-2.6439c1.2956-1.7772 3.8242-2.1646 5.6441-0.86462 1.8198 1.2999 2.2453 3.7973 0.94967 5.5745s-3.8242 2.1646-5.644 0.86459c-1.8199-1.2999-2.2453-3.7973-0.94968-5.5745z"/>
  <path d="m114.68 122.14a4.5117 4.2617 0 1 1 -9.0234 0"/>
  <path d="m129.31 119.51a4.5117 4.2617 0 1 1 -9.0233 0"/>
  <path d="m32.61 244.94c-18.922 4.3413-27.924 28.722-15.938 43.351 9.9519 13.91 33.612 16.06 45.68 3.4983 12.018-11.441 10.873-32.892-3.4387-42.253-7.393-5.2793-17.411-7.1463-26.303-4.5963zm4.6069 9.7762c12.836-3.8177 27.654 8.7824 23.372 21.353-3.3101 12.17-20.76 18.097-31.111 9.8823-8.2006-5.9281-9.7709-18.454-2.2638-25.522 2.6304-2.8114 6.1899-4.7738 10.003-5.7136z"/>
  <path d="m34.585 244.56c-0.42506 0.091064-0.8558 0.19293-1.2744 0.30365-0.43213 0.11432-0.86583 0.22488-1.2901 0.3602-13.936 3.587-24.912 19.585-19.467 35.402 5.3442 16.165 24.249 23.129 38.054 18.15 13.799-3.8528 24.397-20.227 18.503-35.855-5.3014-14.611-21.349-21.186-34.526-18.362zm14.727 23.505c1.2665-0.24866 2.5029 0.18277 3.3227 1.0308 0.018402 0.016693 0.046722 0.023773 0.064682 0.040741 0.095032 0.10251 0.18318 0.20831 0.26523 0.32196 0.91974 1.1058 1.0547 2.665 0.2005 3.8881-0.82425 1.1803-2.3248 1.6942-3.7177 1.398-0.19029-0.03183-0.38396-0.096252-0.56441-0.15637-1.1456-0.3818-2.0666-1.2903-2.3306-2.508-0.39891-1.8406 0.83612-3.6375 2.7596-4.0152zm-12.284 2.8396c0.22192-0.04126 0.45943-0.055237 0.68622-0.054596 0.22679 5.8e-4 0.42931 0.015594 0.65486 0.058441 0.011368 0.002045 0.021011 0.018188 0.032333 0.020325 0.43239 0.086365 0.85957 0.25806 1.2536 0.50198 0.005951 0.003662 0.020828-0.008972 0.026779-0.00528 1.0501 0.65799 1.6045 1.7404 1.5928 2.84-0.002319 0.21808-0.032639 0.44138-0.080948 0.6571-0.029465 0.142-0.083221 0.29034-0.13094 0.42645-0.013977 0.036926-0.015884 0.076447-0.031342 0.11301-0.082123 0.21072-0.19437 0.4064-0.31743 0.59671-0.49606 0.76697-1.2934 1.3494-2.2898 1.545-1.9235 0.37762-3.8048-0.80737-4.2037-2.648-0.15524-0.71625-0.058197-1.4256 0.2262-2.0482 0.074478-0.17639 0.17143-0.34293 0.28052-0.50934 0.017792-0.02713 0.018173-0.060516 0.036911-0.087372 0.11226-0.16074 0.27371-0.29202 0.40987-0.4278 0.16415-0.1637 0.33072-0.29715 0.52255-0.42319 0.19281-0.12671 0.38536-0.24402 0.59833-0.33127 0.2354-0.096466 0.48326-0.17764 0.73322-0.22409zm14.595 7.0465c1.9234-0.37769 3.8048 0.80737 4.2037 2.6479 0.39891 1.8405-0.83612 3.6374-2.7596 4.0151-1.9235 0.37766-3.8048-0.8074-4.2037-2.648-0.3989-1.8404 0.83612-3.6374 2.7596-4.0151zm-12.332 2.8757c1.9234-0.37766 3.8048 0.80737 4.2037 2.6479 0.39891 1.8405-0.83612 3.6374-2.7596 4.0151-1.9235 0.37766-3.8048-0.80737-4.2037-2.6479-0.3989-1.8406 0.83612-3.6374 2.7596-4.0151z"/>
  <path d="m35.048 245.35c-7.2418 1.4748-13.892 5.56-18.22 11.913-8.656 12.707-4.7696 29.686 8.66 37.895 13.43 8.2087 31.349 4.5577 40.005-8.1489 8.656-12.706 4.7696-29.686-8.66-37.895-6.7148-4.1043-14.543-5.2393-21.785-3.7644zm14.379 22.799c1.232-0.24194 2.4057 0.16705 3.2257 0.96967 0.14015 0.13715 0.28503 0.26959 0.40013 0.42908 0.016846 0.022034 0.027206 0.049255 0.043442 0.071594 0.11183 0.16306 0.22746 0.34418 0.30968 0.52698 0.10255 0.21356 0.17116 0.42322 0.22475 0.65051 0.19711 0.83624 0.066223 1.7508-0.45869 2.5214-0.011215 0.016479-0.03656 0.019958-0.048019 0.036194-0.24994 0.36365-0.58907 0.68774-0.96932 0.93842-0.38025 0.25061-0.80267 0.42474-1.2836 0.51914-1.9235 0.37775-3.8316-0.80203-4.2305-2.6426-0.39891-1.8405 0.8629-3.6427 2.7864-4.0204zm-12.413 2.8915c0.22139-0.04361 0.42636-0.071838 0.65387-0.075012 0.046143-0.001709 0.093582-6.1e-4 0.13946-6.1e-4 0.18162 0.00415 0.36128 0.02301 0.54218 0.053833 1.4214 0.21655 2.6392 1.2267 2.9485 2.6539 0.39891 1.8405-0.83612 3.6374-2.7596 4.0151-1.7106 0.33591-3.3909-0.57068-4.0224-2.069-0.083527-0.18195-0.13287-0.38708-0.1813-0.57895-0.001907-0.008759-0.003723-0.016815-0.005569-0.025574-0.052963-0.21701-0.07869-0.42847-0.085281-0.65122-0.019043-0.64285 0.1503-1.2922 0.54399-1.8702 0.52495-0.7706 1.3405-1.2779 2.2261-1.4523zm14.696 6.9998c1.9235-0.37772 3.8104 0.83298 4.2093 2.6735s-0.83614 3.6374-2.7596 4.0151c-1.9234 0.37772-3.8048-0.80731-4.2037-2.6478-0.39891-1.8405 0.83057-3.6631 2.754-4.0408zm-12.332 2.8757c1.9234-0.37769 3.8371 0.8277 4.236 2.6682 0.3989 1.8406-0.86292 3.6428-2.7864 4.0204-1.9234 0.37762-3.8048-0.80737-4.2037-2.6479s0.83057-3.6631 2.754-4.0408z"/>
  <path d="m41.274 274.1c0 1.9135-1.609 3.4667-3.5916 3.4667s-3.5917-1.5531-3.5917-3.4667 1.6091-3.4666 3.5917-3.4666 3.5916 1.553 3.5916 3.4666zm12.25-2.875c0 1.9136-1.609 3.4667-3.5916 3.4667s-3.5917-1.553-3.5917-3.4667c0-1.9136 1.6091-3.4666 3.5917-3.4666s3.5916 1.553 3.5916 3.4666zm-9.875 13.188c0 1.9136-1.609 3.4666-3.5916 3.4666s-3.5917-1.553-3.5917-3.4666 1.6091-3.4666 3.5917-3.4666 3.5916 1.553 3.5916 3.4666zm12.25-2.875c0 1.9136-1.609 3.4666-3.5916 3.4666s-3.5917-1.553-3.5917-3.4666 1.6091-3.4666 3.5917-3.4666 3.5916 1.553 3.5916 3.4666z"/>
  <path d="m195.47 174.35c-16.09 2.96-24.787 23.697-15.405 36.875 7.7072 12.469 27.473 15.332 38.192 4.9621 10.625-9.4011 10.664-28.03-0.91598-36.743-5.9612-4.8854-14.286-6.9262-21.871-5.0936zm3.4121 8.6625c10.956-2.7638 22.81 8.7766 18.628 19.484-3.3471 10.401-18.276 14.797-26.584 7.2438-6.6091-5.4815-7.3432-16.398-0.71008-22.201 2.3398-2.3239 5.4201-3.8731 8.6657-4.5258z"/>
  <path d="m200.64 173.4c-1.4802 0.039246-2.9484 0.21844-4.375 0.53125-0.36815 0.080719-0.7312 0.15076-1.0938 0.25-11.869 2.5175-21.803 15.913-17.969 29.844 3.7331 14.227 19.27 21.072 31.094 17.344 11.766-2.7535 21.407-16.465 17.188-30.25-3.4048-11.633-14.483-17.993-24.844-17.719zm-2.5312 15c1.7595 0 3.1875 1.4 3.1875 3.125 1.5e-5 1.725-1.428 3.125-3.1875 3.125s-3.1875-1.4-3.1875-3.125c1.5e-5 -1.725 1.428-3.125 3.1875-3.125zm3.3125 9.125c1.7595 0 3.1875 1.4 3.1875 3.125s-1.428 3.125-3.1875 3.125-3.1875-1.4-3.1875-3.125 1.428-3.125 3.1875-3.125z"/>
  <path d="m200.58 174.74c-7.4103 0.12399-14.676 3.5576-19.344 9.875-7.8609 10.64-5.3932 25.51 5.5 33.188s26.108 5.2648 33.969-5.375c7.8609-10.64 5.3932-25.51-5.5-33.188-4.4254-3.1192-9.5548-4.5848-14.625-4.5zm-2.3125 13.719c1.7595 0 3.1875 1.4 3.1875 3.125 1.5e-5 1.725-1.428 3.125-3.1875 3.125s-3.1875-1.4-3.1875-3.125c1.5e-5 -1.725 1.428-3.125 3.1875-3.125zm3.3125 9.125c1.7595 0 3.1875 1.4 3.1875 3.125s-1.428 3.125-3.1875 3.125-3.1875-1.4-3.1875-3.125 1.428-3.125 3.1875-3.125z"/>
  <path d="m201.08 191.64c0 1.642-1.3607 2.9747-3.0372 2.9747s-3.0372-1.3327-3.0372-2.9747 1.3607-2.9747 3.0372-2.9747 3.0372 1.3327 3.0372 2.9747zm3.25 8.75c0 1.642-1.3607 2.9747-3.0372 2.9747s-3.0372-1.3327-3.0372-2.9747 1.3607-2.9747 3.0372-2.9747 3.0372 1.3327 3.0372 2.9747z"/>
  <path d="m125.7 163.23c-2.1984 0.044037-4.3674 0.26868-6.5106 0.70883-8.5724 1.7607-16.443 6.6291-21.566 14.214-10.246 15.169-5.6504 35.453 10.247 45.252 15.897 9.7995 37.103 5.4322 47.35-9.7369 10.246-15.169 5.6504-35.416-10.247-45.215-5.9614-3.6748-12.677-5.3549-19.273-5.2229z"/>
  <path d="m116.18 163.33c-22.398 5.1827-33.055 34.289-18.866 51.752 11.78 16.606 39.788 19.172 54.073 4.1763 14.226-13.658 12.871-39.267-4.0705-50.442-8.7513-6.3024-20.61-8.5312-31.136-5.487zm5.4534 11.671c15.194-4.5575 32.735 10.484 27.666 25.491-3.9183 14.529-24.574 21.604-36.827 11.798-9.7073-7.077-11.566-22.031-2.6797-30.468 3.1137-3.3563 7.3273-5.699 11.841-6.821z"/>
  <path d="m126.02 162.1c-2.5416-0.014923-5.0722 0.25671-7.5093 0.78345-0.50314 0.10873-1.0211 0.24088-1.5167 0.37305-0.51151 0.13644-1.0144 0.24884-1.5166 0.41037-16.497 4.2822-29.492 23.385-23.046 42.268 6.3262 19.298 28.714 27.618 45.056 21.675 16.335-4.5995 28.876-24.171 21.899-42.828-5.2949-14.717-19.642-22.602-33.367-22.682z"/>
  <path d="m126.66 170.34c-1.8035-0.011261-3.5992 0.19339-5.3286 0.59027-0.35701 0.08194-0.72458 0.18149-1.0762 0.28107-0.36298 0.10281-0.71985 0.1875-1.0762 0.3092-11.706 3.2264-20.927 17.619-16.353 31.847 4.489 14.54 20.376 20.809 31.971 16.331 11.591-3.4655 20.49-18.212 15.539-32.268-3.7572-11.089-13.938-17.029-23.677-17.09z"/>
  <path d="m126.43 171.2c-1.56 0.033142-3.0991 0.20239-4.6198 0.53406-6.0829 1.3266-11.668 4.9947-15.303 10.709-7.2708 11.429-4.0094 26.712 7.271 34.096 11.28 7.3834 26.328 4.0929 33.599-7.3363 7.2708-11.429 4.0094-26.684-7.271-34.067-4.2302-2.7688-8.9958-4.0347-13.676-3.9352z"/>
  <path d="m129.02 180.43c-0.88974 0.00824-1.6578 0.20981-2.1562 0.65625-1.9555 1.7515-3.6877 3.5906-5.2188 5.4688-0.13717-0.36264-0.27733-0.74756-0.40624-1.125-1.6054-4.701-9.6971-0.72015-8.9062 2.75 0.62176 2.7283 1.8675 5.3132 3.625 7.75-1.6037 3.9438-2.2926 7.9398-2 11.844 0.26604 3.5491 11.162 6.559 11.312 1.5938 0.046051-1.5238 0.094849-3.0238 0.21875-4.5312 2.5749 1.7349 5.4226 3.2992 8.4375 4.6875 3.2415 1.4926 10.401-5.5397 4.4688-8.125-4.5705-1.992-7.8348-3.856-10.281-5.8125 1.4152-2.5803 3.5412-5.2601 6.875-8.125 3.9875-3.4266-2.1132-7.067-5.9688-7.0312z"/>
  <path d="m135.35 187.19c-9.5077 8.1704-9.5093 14.857-9.7227 21.92-0.15002 4.9653-11.048 1.9582-11.314-1.591-0.67772-9.0414 3.9256-18.651 12.905-26.693 2.6582-2.3809 13.04 2.1466 8.1317 6.364z"/>
  <path d="m138.76 201.15c-11.492-5.0086-14.877-9.277-17.16-15.964-1.6054-4.701-9.7202-0.73968-8.9294 2.7305 2.0146 8.8401 10.658 16.315 21.607 21.356 3.2415 1.4927 10.415-5.5373 4.4831-8.1226z"/>
  <path d="m129.05 181.94c-7.201 5.9989-13.578 15.626-12.344 25.438 1.8528 1.945 9.0077 4.1175 7.2188-1.25-0.39259-8.6463 4.911-16.18 10.938-21.562-0.95877-1.9232-3.7858-2.7713-5.8125-2.625z"/>
  <path d="m118.24 184.78c-2.829 0.22198-4.6131 3.0181-2.4375 5.4062 3.8619 8.0967 11.992 14.048 20.188 16.938 2.3178-0.46628 5.1022-4.4012 1.125-4.9062-7.9792-3.088-15.043-8.9324-17.625-17.25-0.31218-0.25382-0.85623-0.23236-1.25-0.1875z"/>
  <path d="m129.1 184.49c-6.5838 5.3831-11.906 13.616-11.25 22.438 1.671 1.1209 4.7275 2.0158 3.2188-1.1875-0.38672-8.1235 5.4684-15.654 9.7187-20.906-0.53711-0.12021-1.1109-0.41177-1.6875-0.34375z"/>
  <path d="m117.72 187.43c-2.6963 1.1493 1.2159 4.1527 1.6562 5.7812 4.0301 5.592 10.189 10.428 16.75 12.125 1.4492-1.4097-3.7185-1.6089-4.5-2.875-6.2753-3.2127-11.314-8.8206-13.906-15.031z"/>
  <path d="m31.192 166.43c-21.136 4.9526-31.192 32.766-17.803 49.454 11.116 15.868 37.545 18.321 51.026 3.9909 13.424-13.051 12.145-37.524-3.8411-48.202-8.2582-6.0226-19.449-8.1524-29.382-5.2434zm5.146 11.152c14.338-4.3552 30.891 10.019 26.107 24.359-3.6974 13.884-23.19 20.645-34.752 11.274-9.1602-6.7627-10.914-21.052-2.5287-29.115 2.9382-3.2072 6.9143-5.446 11.174-6.5181z"/>
  <path d="m40.95 164.77c-2.3984-0.014252-4.7775 0.2432-7.0773 0.74655-0.47477 0.10391-0.97734 0.23202-1.445 0.35834-0.48269 0.1304-0.94156 0.23386-1.4155 0.38824-15.567 4.092-27.846 22.359-21.763 40.404 5.9697 18.441 27.102 26.374 42.523 20.695 15.414-4.3953 27.255-23.084 20.672-40.912-4.9965-14.064-18.543-21.603-31.494-21.68zm0.9731 17.589c8.3342 0 15.098 6.4216 15.098 14.334 0 7.9123-6.764 14.334-15.098 14.334-8.3343 0-15.098-6.4216-15.098-14.334 0-7.9123 6.764-14.334 15.098-14.334z"/>
  <path d="m40.184 165.85c-2.0746 0.042053-4.1408 0.2662-6.1632 0.68683-8.0893 1.6825-15.513 6.3396-20.347 13.587-9.669 14.496-5.3288 33.876 9.6723 43.241 15.001 9.3644 35.007 5.1785 44.676-9.3171s5.3288-33.846-9.6723-43.211c-5.6254-3.5117-11.942-5.1132-18.165-4.987zm0.5603 16.753c8.3342 0 15.098 6.4216 15.098 14.334s-6.764 14.334-15.098 14.334c-8.3343 0-15.098-6.4216-15.098-14.334 0-7.9123 6.764-14.334 15.098-14.334z"/>
  <path d="m37.559 171.37c-6.158-0.13766-12.061 3.3977-14.744 9.4664l-5.308 12.005c-3.5782 8.0916-0.028412 17.519 7.962 21.142l13.506 6.1218c7.9904 3.6235 17.3 0.028748 20.878-8.0628l5.308-12.005c3.5782-8.0916 0.028419-17.519-7.962-21.142l-13.506-6.1218c-1.9976-0.90588-4.081-1.3576-6.1337-1.4035zm4.3643 10.989c8.3342 0 15.098 6.4216 15.098 14.334 0 7.9123-6.764 14.334-15.098 14.334-8.3343 0-15.098-6.4216-15.098-14.334 0-7.9123 6.764-14.334 15.098-14.334z"/>
  <path d="m38.68 174.15c-6.1931-0.13846-12.134 3.4229-14.833 9.5261l-3.5387 7.9732c-3.5985 8.1376-0.014862 17.618 8.021 21.262l9.7313 4.4196c8.0358 3.6441 17.398 0.015045 20.996-8.1226l3.5387-7.9733c3.5985-8.1376 0.014893-17.618-8.021-21.262l-9.7313-4.4196c-2.009-0.91104-4.0988-1.3574-6.1632-1.4036zm2.3001 8.2122c8.3343 0 15.098 6.4216 15.098 14.334 0 7.9123-6.764 14.334-15.098 14.334-8.3342 0-15.098-6.4216-15.098-14.334 0-7.9123 6.764-14.334 15.098-14.334z"/>
  <path d="m39.548 176.66c-6.193-0.13849-12.134 3.4228-14.833 9.5261l-2.4181 5.4648c-3.5985 8.1376-0.044342 17.618 7.9915 21.262l5.8093 2.6279c8.0358 3.6441 17.398 0.015076 20.996-8.1226l2.4181-5.4648c3.5985-8.1376 0.044373-17.618-7.9915-21.262l-5.8093-2.6279c-2.009-0.91101-4.0988-1.3574-6.1632-1.4035zm1.3565 6.3009c7.8981 0 14.352 5.772 15.01 13.11 0.047394 0.4425 0.084534 0.89038 0.08847 1.3438-0.003937 0.45343-0.041077 0.90131-0.08847 1.3438-0.65744 7.3376-7.1117 13.11-15.01 13.11-7.8981 0-14.352-5.772-15.01-13.11-0.043182-0.40332-0.081268-0.81189-0.08844-1.2244 0-0.040222-3.66e-4 -0.079315 0-0.11945-3.66e-4 -0.040131 0-0.079224 0-0.11945 0-0.41409 0.052124-0.81915 0.08844-1.2244 0.65747-7.3376 7.1118-13.11 15.01-13.11z"/>
  <path d="m36.51 181.59c-10.126 2.4119-14.944 15.957-8.529 24.084 5.3257 7.7278 17.987 8.9221 24.445 1.9436 6.4313-6.356 5.8186-18.274-1.8402-23.474-3.9563-2.933-9.3176-3.9702-14.076-2.5536zm2.4654 5.4313c6.869-2.121 14.799 4.8792 12.507 11.863-1.7714 6.7613-11.11 10.054-16.649 5.4903-4.3885-3.2934-5.2288-10.253-1.2114-14.179 1.4076-1.5619 3.3125-2.6522 5.3531-3.1743z"/>
  <path d="m40.95 181.02c-1.149-0.006927-2.2894 0.11322-3.3912 0.35837-0.22747 0.050598-0.45422 0.11764-0.67825 0.17917-0.23124 0.063507-0.4512 0.104-0.67824 0.17917-7.458 1.9928-13.353 10.892-10.439 19.679 2.8599 8.9806 12.989 12.859 20.377 10.094 7.3846-2.1405 13.062-11.266 9.9082-19.948-2.3937-6.8489-8.8936-10.504-15.098-10.541zm3.2143 6.8684c2.0258 0 3.6861 1.6813 3.6861 3.7328-2.3e-5 2.0514-1.6603 3.7029-3.6861 3.7029s-3.6566-1.6515-3.6566-3.7029 1.6308-3.7328 3.6566-3.7328zm-4.9836 10.302c2.0258 0 3.6566 1.6814 3.6566 3.7328 2.3e-5 2.0514-1.6308 3.7029-3.6566 3.7029s-3.6861-1.6515-3.6861-3.7029c-3.1e-5 -2.0514 1.6603-3.7328 3.6861-3.7328z"/>
  <path d="m40.803 181.55c-0.99386 0.020477-1.9505 0.12366-2.9194 0.32849-3.8754 0.81937-7.4447 3.0699-9.7608 6.5996-4.6322 7.0593-2.557 16.492 4.6297 21.053 7.1868 4.5604 16.777 2.5501 21.409-4.5092 4.6322-7.0593 2.557-16.492-4.6298-21.053-2.695-1.7102-5.7471-2.4803-8.7287-2.4188zm3.3617 6.3308c2.0258 0 3.6861 1.6813 3.6861 3.7328 2.3e-5 2.0514-1.6603 3.7029-3.6861 3.7029s-3.6566-1.6515-3.6566-3.7029c2.3e-5 -2.0514 1.6308-3.7328 3.6566-3.7328zm-5.0131 10.302c2.0258 0 3.6861 1.6814 3.6861 3.7328-2.3e-5 2.0514-1.6603 3.7029-3.6861 3.7029s-3.6566-1.6515-3.6566-3.7029 1.6308-3.7328 3.6566-3.7328z"/>
  <path d="m47.79 191.72c0 1.854-1.5443 3.3588-3.4471 3.3588s-3.4472-1.5047-3.4472-3.3588c0-1.854 1.5443-3.3587 3.4472-3.3587 1.9028 0 3.4471 1.5047 3.4471 3.3587zm-5.2149 10.253c0 1.854-1.5443 3.3588-3.4471 3.3588s-3.4472-1.5047-3.4472-3.3588c0-1.854 1.5443-3.3588 3.4472-3.3588 1.9028 0 3.4471 1.5047 3.4471 3.3588z"/>
  <path d="m205.67 255.27c-0.67236-0.77396-1.4086-1.4784-2.2145-2.1153-3.2233-2.5472-7.4106-3.9155-11.81-3.5032-8.7987 0.82455-15.103 8.4617-14.072 17.055 1.0315 8.5929 8.9957 14.887 17.794 14.062 8.7987-0.82458 15.103-8.4617 14.072-17.055-0.38681-3.2224-1.7529-6.1219-3.7699-8.4438zm-4.185 6.3721c1.113 1.3359 0.92642 3.2728-0.41653 4.3234s-3.3362 0.81906-4.4492-0.51688-0.92644-3.2728 0.41652-4.3234 3.3362-0.819 4.4493 0.51691zm-8.7078-4.1812c1.1131 1.3359 0.92644 3.2728-0.41652 4.3234-1.3429 1.0506-3.3362 0.81903-4.4493-0.51688-1.113-1.3359-0.92644-3.2728 0.41653-4.3234 1.343-1.0505 3.3362-0.81903 4.4492 0.51691zm4.7011 11.913c1.113 1.3359 0.92645 3.2728-0.41652 4.3234s-3.3362 0.81906-4.4493-0.51688c-1.113-1.3359-0.92644-3.2728 0.41652-4.3234s3.3362-0.81909 4.4493 0.51685zm-8.7078-4.1812c1.113 1.3359 0.92642 3.2728-0.41653 4.3234-1.343 1.0505-3.3362 0.81903-4.4492-0.51685s-0.92645-3.2729 0.41652-4.3234c1.3429-1.0506 3.3362-0.81906 4.4493 0.51685z"/>
  <path d="m211.43 240.55c-15.71-11.891-41.244-3.4217-45.355 15.113-4.8411 16.506 8.6709 36.172 26.615 37.557 17.005 2.0555 33.627-12.411 31.976-29.41-0.49345-9.0621-5.4407-17.995-13.236-23.261zm-4.9415 9.7533c11.364 7.5141 10.719 26.956-2.2138 31.6-11.982 5.1436-28.027-4.6053-28.052-17.814-0.48901-10.098 8.6354-19.243 19.194-17.908 3.9707 0.25531 7.8533 1.767 11.072 4.1222z"/>
  <path d="m217.63 246.32c-1.374-1.6691-2.9226-3.1699-4.6068-4.4835-0.3477-0.27118-0.71973-0.54614-1.0792-0.79993-0.37102-0.26196-0.75171-0.51386-1.1347-0.75647-11.886-8.5117-31.913-6.8784-41.203 7.3488-9.6362 14.368-3.0712 33.418 9.8566 40.947 12.013 8.2373 32.117 6.0473 40.964-8.4061 7.0928-11.265 4.6223-24.837-2.797-33.85zm-11.958 9.755c5.7408 6.8904 5.1264 16.608-1.3714 21.691-6.4978 5.0832-16.431 3.6167-22.171-3.2737-5.7408-6.8904-5.1264-16.608 1.3714-21.691 6.4978-5.0832 16.431-3.6166 22.171 3.2737z"/>
  <path d="m216.27 246.32c-1.227-1.4136-2.5479-2.714-4.0134-3.8813-5.8617-4.6693-13.447-7.2337-21.378-6.5602-15.862 1.347-27.111 15.111-25.097 30.698 2.0142 15.587 16.521 27.115 32.383 25.768s27.083-15.089 25.069-30.676c-0.75531-5.8452-3.2827-11.108-6.9638-15.348zm-10.425 8.7332c5.7408 6.8904 5.1264 16.608-1.3714 21.691-6.4978 5.0832-16.431 3.6166-22.171-3.2737-5.7408-6.8904-5.1264-16.608 1.3714-21.691 6.4978-5.0832 16.431-3.6166 22.171 3.2738z"/>
  <path d="m206.4 255.43c-0.75238-0.91425-1.621-1.738-2.5473-2.4544-0.19125-0.14792-0.3775-0.31113-0.57533-0.4494-0.20422-0.1427-0.39482-0.29361-0.60574-0.42557-6.5414-4.6372-17.681-3.6211-22.908 4.2791-5.4188 7.9799-1.8704 18.434 5.2535 22.524 6.6131 4.4852 17.755 3.1775 22.737-4.8453 3.9923-6.254 2.7082-13.691-1.3547-18.628zm-4.4771 5.901c1.113 1.336 0.92645 3.2728-0.41652 4.3234-1.3429 1.0506-3.3362 0.81906-4.4493-0.51688-1.113-1.3359-0.92642-3.2728 0.41653-4.3234 1.343-1.0505 3.3362-0.81903 4.4492 0.51688zm-8.7078-4.1811c1.113 1.3359 0.92645 3.2728-0.41652 4.3234s-3.3362 0.81903-4.4493-0.51688c-1.113-1.336-0.92644-3.2728 0.41652-4.3234 1.3429-1.0507 3.3362-0.81905 4.4493 0.51685zm4.7011 11.913c1.113 1.3359 0.92642 3.2728-0.41653 4.3234-1.3429 1.0506-3.3362 0.81903-4.4493-0.51691-1.113-1.3359-0.92644-3.2728 0.41652-4.3234s3.3362-0.81909 4.4493 0.51688zm-8.7078-4.1811c1.113 1.3359 0.92644 3.2728-0.41652 4.3234-1.3429 1.0506-3.3362 0.81903-4.4493-0.51685-1.113-1.3359-0.92644-3.2728 0.41652-4.3234s3.3362-0.81909 4.4493 0.51691z"/>
  <path d="m197.15 273.69c-1.2445 0.95215-3.1118 0.67658-4.1681-0.61517-1.0562-1.2918-0.90337-3.1129 0.3412-4.0651 1.2445-0.95215 3.1119-0.67651 4.1681 0.61523 1.0562 1.2918 0.90334 3.1129-0.34123 4.0651zm-8.7381-4.4106c-1.2446 0.95215-3.1118 0.67658-4.1681-0.61523-1.0562-1.2918-0.90335-3.1129 0.3412-4.0651 1.2446-0.95215 3.1118-0.67658 4.1681 0.61523 1.0562 1.2918 0.90334 3.1129-0.3412 4.0651zm12.785-3.3094c-1.2446 0.95215-3.1118 0.67658-4.1681-0.61523-1.0562-1.2918-0.90334-3.1128 0.3412-4.0651 1.2446-0.95212 3.1119-0.67648 4.1681 0.61526 1.0562 1.2918 0.90335 3.1129-0.34122 4.0651zm-8.7382-4.4106c-1.2446 0.95215-3.1118 0.67658-4.1681-0.61523-1.0562-1.2918-0.90337-3.113 0.34119-4.0651 1.2446-0.95216 3.1119-0.67651 4.1681 0.61523s0.90332 3.1128-0.34122 4.0651z"/>
  <path d="m53.913 106.5c-0.5849-0.68954-1.2254-1.3173-1.9263-1.8846-2.8039-2.2695-6.4464-3.4886-10.273-3.1212-7.6538 0.73462-13.138 7.539-12.241 15.195 0.89725 7.656 7.8252 13.264 15.479 12.529 7.6538-0.73468 13.138-7.539 12.241-15.195-0.33646-2.871-1.5248-5.4544-3.2794-7.523zm-3.6405 5.6772c0.9682 1.1902 0.80591 2.916-0.3623 3.852-1.1682 0.93607-2.9021 0.72977-3.8704-0.46048-0.9682-1.1902-0.80588-2.9159 0.36234-3.852 1.1682-0.936 2.9021-0.72974 3.8703 0.46051zm-7.5747-3.7252c0.9682 1.1903 0.80588 2.916-0.36234 3.852-1.1682 0.9361-2.9021 0.72974-3.8703-0.46051s-0.80591-2.9159 0.3623-3.852c1.1682-0.936 2.9021-0.72974 3.8704 0.46048zm4.0894 10.614c0.9682 1.1902 0.80588 2.916-0.36234 3.852-1.1682 0.93607-2.9021 0.72977-3.8703-0.46048s-0.80588-2.916 0.3623-3.852c1.1682-0.93604 2.9022-0.72974 3.8704 0.46051zm-7.5748-3.7252c0.96823 1.1902 0.80588 2.916-0.3623 3.852-1.1682 0.93604-2.9021 0.72977-3.8703-0.46054-0.96823-1.1902-0.80591-2.9159 0.36234-3.8519 1.1682-0.9361 2.9021-0.72977 3.8703 0.46048z"/>
  <path d="m57.923 94.385c-13.666-10.595-35.877-3.0486-39.453 13.465-4.2112 14.706 7.5426 32.228 23.152 33.462 14.792 1.8313 29.251-11.058 27.815-26.203-0.42923-8.074-4.7328-16.033-11.514-20.724zm-4.2986 8.6898c9.885 6.6948 9.3246 24.017-1.9257 28.155-10.423 4.5827-24.38-4.1032-24.402-15.872-0.42538-8.9966 7.5118-17.144 16.696-15.956 3.454 0.22745 6.8315 1.5743 9.6313 3.6728z"/>
  <path d="m63.312 99.523c-1.1952-1.4871-2.5423-2.8242-4.0074-3.9946-0.30246-0.24158-0.6261-0.48651-0.93878-0.71265-0.32272-0.2334-0.6539-0.45789-0.98703-0.67401-10.34-7.5836-27.761-6.1283-35.842 6.5475-8.3824 12.802-2.6716 29.774 8.5741 36.482 10.45 7.3391 27.938 5.388 35.634-7.4895 6.1699-10.037 4.0208-22.128-2.4331-30.159zm-10.402 8.6914c4.9938 6.139 4.4594 14.797-1.193 19.326-5.6523 4.529-14.293 3.2223-19.286-2.9167-4.9938-6.139-4.4594-14.797 1.193-19.326 5.6523-4.529 14.293-3.2223 19.286 2.9168z"/>
  <path d="m62.632 99.276c-1.0674-1.2595-2.2164-2.418-3.4911-3.4581-5.099-4.1602-11.698-6.445-18.597-5.8449-13.798 1.2001-23.583 13.463-21.831 27.351 1.7521 13.888 14.371 24.159 28.17 22.958 13.798-1.2002 23.559-13.444 21.807-27.331-0.65707-5.2078-2.8556-9.8966-6.0577-13.675zm-9.0686 7.781c4.9939 6.139 4.4594 14.797-1.1929 19.326s-14.293 3.2223-19.286-2.9168c-4.9938-6.139-4.4594-14.797 1.1929-19.326s14.293-3.2223 19.286 2.9168z"/>
  <path d="m54.291 106.65c-0.65448-0.81454-1.4101-1.5486-2.2158-2.1868-0.16635-0.1318-0.3284-0.27725-0.50049-0.40039-0.17767-0.12717-0.34344-0.26163-0.52692-0.37915-5.6902-4.1316-15.381-3.2263-19.927 3.8124-4.7137 7.1098-1.627 16.424 4.5699 20.068 5.7526 3.9961 15.445 2.831 19.779-4.317 3.4729-5.5721 2.3559-12.198-1.1784-16.597zm-3.8945 5.2575c0.9682 1.1903 0.80585 2.916-0.36237 3.852s-2.9021 0.72974-3.8703-0.46051-0.80588-2.916 0.36234-3.852c1.1682-0.93604 2.9021-0.72974 3.8704 0.46048zm-7.5748-3.7252c0.9682 1.1902 0.80591 2.9159-0.36234 3.852-1.1682 0.93597-2.9021 0.72974-3.8703-0.46051-0.96823-1.1903-0.80591-2.916 0.3623-3.852 1.1682-0.9361 2.9022-0.72974 3.8704 0.46051zm4.0894 10.614c0.96823 1.1903 0.80588 2.9159-0.36234 3.852-1.1682 0.93607-2.9021 0.72974-3.8703-0.46048s-0.80588-2.916 0.36234-3.852c1.1682-0.93604 2.9021-0.72974 3.8703 0.46054zm-7.5747-3.7252c0.9682 1.1903 0.80588 2.916-0.36234 3.852-1.1682 0.93607-2.9021 0.72974-3.8704-0.46048-0.96817-1.1903-0.80588-2.916 0.36234-3.852 1.1682-0.93604 2.9021-0.72974 3.8704 0.46054z"/>
  <path d="m46.324 122.6c-1.0638 0.8175-2.66 0.58084-3.5629-0.52817-0.90283-1.109-0.77219-2.6726 0.29169-3.49 1.0638-0.81744 2.66-0.58081 3.5629 0.5282 0.90283 1.109 0.77216 2.6726-0.29169 3.49zm-7.4694-3.7867c-1.0638 0.81744-2.66 0.58081-3.5628-0.52823-0.90286-1.109-0.77219-2.6725 0.29166-3.49 1.0638-0.81744 2.66-0.58084 3.5628 0.5282 0.90286 1.109 0.77219 2.6726-0.29166 3.49zm10.929-2.8412c-1.0638 0.81744-2.66 0.58081-3.5629-0.5282-0.90283-1.1091-0.77216-2.6726 0.29169-3.49 1.0638-0.81744 2.66-0.58087 3.5628 0.52814 0.90286 1.1091 0.77222 2.6726-0.29166 3.4901zm-7.4693-3.7867c-1.0638 0.81747-2.66 0.58084-3.5629-0.5282-0.90283-1.109-0.77219-2.6726 0.29169-3.49 1.0638-0.81744 2.66-0.58081 3.5628 0.5282 0.90286 1.109 0.77219 2.6726-0.29166 3.49z"/>
  <path d="m264.85 184.61c-0.81296 0.017105-1.6138 0.11002-2.4062 0.28122-3.17 0.68492-6.0742 2.5807-7.9688 5.5313-3.789 5.9011-2.0973 13.782 3.7812 17.594 5.8785 3.8122 13.711 2.1198 17.5-3.7812s2.0973-13.782-3.7812-17.594c-2.2045-1.4296-4.6861-2.0826-7.125-2.0312zm1.9375 5.9062c1.38 0 2.5 1.12 2.5 2.5s-1.12 2.5-2.5 2.5-2.5-1.12-2.5-2.5 1.12-2.5 2.5-2.5zm-6.875 3.25c1.38 0 2.5 1.12 2.5 2.5 3.1e-5 1.38-1.12 2.5-2.5 2.5s-2.5-1.12-2.5-2.5c3.1e-5 -1.38 1.12-2.5 2.5-2.5zm9.75 3.25c1.38 0 2.5 1.12 2.5 2.5s-1.12 2.5-2.5 2.5-2.5-1.12-2.5-2.5 1.12-2.5 2.5-2.5zm-6.875 3.25c1.38 0 2.5 1.12 2.5 2.5s-1.12 2.5-2.5 2.5-2.5-1.12-2.5-2.5 1.12-2.5 2.5-2.5z"/>
  <path d="m259.64 175.99c-13.675 3.3404-20.182 22.1-11.519 33.355 7.1925 10.702 24.292 12.357 33.014 2.6917 8.6856-8.8028 7.8582-25.308-2.4852-32.511-5.3431-4.062-12.584-5.4985-19.01-3.5365zm3.3295 7.522c9.2767-2.9374 19.986 6.7574 16.891 16.43-2.3923 9.3641-15.004 13.924-22.485 7.6038-5.9267-4.5612-7.0617-14.199-1.6361-19.637 1.901-2.1632 4.4736-3.6731 7.2295-4.3963z"/>
  <path d="m265.38 175.7c-1.5518-0.009598-3.0745 0.16052-4.5625 0.50002-0.30722 0.070099-0.63495 0.1648-0.9375 0.25-0.31229 0.087936-0.63089 0.14592-0.9375 0.24998-10.072 2.76-17.998 15.079-14.062 27.25 3.8624 12.438 17.523 17.799 27.5 13.969 9.973-2.9645 17.635-15.569 13.375-27.594-3.2328-9.4854-11.996-14.573-20.375-14.625zm0.0312 10.188c6.072 0 11 4.816 11 10.75s-4.928 10.75-11 10.75-11-4.816-11-10.75 4.928-10.75 11-10.75z"/>
  <path d="m264.88 176.67c-1.3423 0.028412-2.6603 0.18509-3.9688 0.46875-5.2339 1.1348-10.028 4.2679-13.156 9.1563-6.2559 9.7768-3.4558 22.84 6.25 29.156 9.7059 6.316 22.65 3.4956 28.906-6.2812 6.2559-9.7768 3.4558-22.809-6.25-29.125-3.6397-2.3685-7.7545-3.4601-11.781-3.375zm0.2812 9.2188c6.072 0 11 4.816 11 10.75s-4.928 10.75-11 10.75-11-4.816-11-10.75 4.928-10.75 11-10.75z"/>
  <path d="m265.41 184.67c-0.93985-0.005783-1.88 0.10762-2.7812 0.3125-0.18607 0.042297-0.37924 0.073624-0.5625 0.125-0.18915 0.053131-0.3768 0.09346-0.5625 0.15626-6.1004 1.6659-10.915 9.1228-8.5312 16.469 2.3394 7.5072 10.613 10.718 16.656 8.4062 6.0403-1.7893 10.674-9.3986 8.0938-16.656-1.958-5.7252-7.2373-8.7812-12.312-8.8125zm1.5 5.8438c1.38 0 2.5 1.12 2.5 2.5 3.1e-5 1.38-1.12 2.5-2.5 2.5s-2.5-1.12-2.5-2.5c3.1e-5 -1.38 1.12-2.5 2.5-2.5zm-6.875 3.25c1.38 0 2.5 1.12 2.5 2.5-3.1e-5 1.38-1.12 2.5-2.5 2.5s-2.5-1.12-2.5-2.5c-3.1e-5 -1.38 1.12-2.5 2.5-2.5zm9.75 3.25c1.38 0 2.5 1.12 2.5 2.5s-1.12 2.5-2.5 2.5-2.5-1.12-2.5-2.5 1.12-2.5 2.5-2.5zm-6.875 3.25c1.38 0 2.5 1.12 2.5 2.5 3.1e-5 1.38-1.12 2.5-2.5 2.5s-2.5-1.12-2.5-2.5c3.1e-5 -1.38 1.12-2.5 2.5-2.5z"/>
  <path d="m269.55 192.97c0 1.2566-1.0943 2.2765-2.4427 2.2765s-2.4427-1.0199-2.4427-2.2765 1.0943-2.2765 2.4427-2.2765 2.4427 1.0198 2.4427 2.2765zm2.6138 6.6962c0 1.2566-1.0943 2.2765-2.4427 2.2765s-2.4427-1.0198-2.4427-2.2765c0-1.2566 1.0943-2.2765 2.4427-2.2765s2.4427 1.0198 2.4427 2.2765zm-9.7388-3.5087c0 1.2566-1.0943 2.2765-2.4427 2.2765s-2.4427-1.0199-2.4427-2.2765 1.0943-2.2765 2.4427-2.2765 2.4427 1.0198 2.4427 2.2765zm2.6138 6.6962c0 1.2566-1.0943 2.2765-2.4427 2.2765s-2.4427-1.0199-2.4427-2.2765c0-1.2567 1.0943-2.2765 2.4427-2.2765s2.4427 1.0198 2.4427 2.2765z"/>
  <path d="m216.25 31.234c-0.67235-0.77396-1.4086-1.4785-2.2144-2.1153-3.2233-2.5472-7.4106-3.9155-11.81-3.5032-8.7987 0.82455-15.103 8.4617-14.072 17.055 1.0315 8.593 8.9957 14.887 17.794 14.062 8.7987-0.82462 15.103-8.4617 14.072-17.055-0.38681-3.2224-1.7529-6.122-3.7699-8.4438zm-4.185 6.3721c1.113 1.3359 0.92642 3.2728-0.41653 4.3234s-3.3362 0.81906-4.4492-0.51688-0.92645-3.2728 0.41652-4.3234 3.3362-0.81903 4.4493 0.51688zm-8.7078-4.1811c1.1131 1.3359 0.92644 3.2728-0.41652 4.3234-1.3429 1.0506-3.3362 0.81903-4.4493-0.51691-1.113-1.3359-0.92644-3.2728 0.41652-4.3234 1.343-1.0505 3.3363-0.81906 4.4493 0.51691zm4.7011 11.913c1.113 1.3359 0.92644 3.2728-0.41652 4.3234s-3.3362 0.81903-4.4493-0.51691c-1.113-1.3359-0.92644-3.2728 0.41652-4.3234s3.3362-0.81909 4.4493 0.51685zm-8.7078-4.1812c1.113 1.3359 0.92642 3.2728-0.41653 4.3234s-3.3362 0.81903-4.4493-0.51685c-1.113-1.3359-0.92644-3.2728 0.41652-4.3234s3.3362-0.81903 4.4493 0.51685z"/>
  <path d="m222.01 16.511c-15.71-11.891-41.244-3.4217-45.355 15.113-4.8411 16.506 8.6708 36.172 26.615 37.557 17.005 2.0555 33.627-12.411 31.976-29.41-0.49344-9.0621-5.4407-17.995-13.236-23.261zm-4.9415 9.7534c11.364 7.5141 10.719 26.956-2.2138 31.6-11.982 5.1436-28.027-4.6054-28.052-17.814-0.48901-10.098 8.6354-19.243 19.194-17.908 3.9707 0.25531 7.8533 1.767 11.072 4.1222z"/>
  <path d="m228.21 22.278c-1.374-1.6691-2.9226-3.1699-4.6068-4.4835-0.3477-0.27118-0.71974-0.54614-1.0792-0.79993-0.371-0.26196-0.75169-0.51386-1.1347-0.75647-11.886-8.5117-31.913-6.8784-41.203 7.3488-9.6362 14.368-3.0712 33.418 9.8566 40.947 12.013 8.2373 32.117 6.0473 40.964-8.4062 7.0928-11.265 4.6223-24.836-2.797-33.85zm-11.958 9.755c5.7408 6.8904 5.1264 16.608-1.3714 21.691-6.4978 5.0832-16.431 3.6166-22.171-3.2737-5.7408-6.8904-5.1264-16.608 1.3714-21.691 6.4978-5.0832 16.431-3.6166 22.171 3.2737z"/>
  <path d="m226.85 22.281c-1.227-1.4136-2.5479-2.714-4.0134-3.8813-5.8617-4.6693-13.447-7.2337-21.378-6.5602-15.862 1.347-27.111 15.111-25.097 30.698 2.0142 15.587 16.521 27.115 32.383 25.768s27.083-15.089 25.069-30.676c-0.75531-5.8452-3.2827-11.108-6.9638-15.348zm-10.425 8.7332c5.7408 6.8904 5.1264 16.608-1.3714 21.691-6.4978 5.0833-16.431 3.6167-22.171-3.2737-5.7408-6.8904-5.1264-16.608 1.3714-21.691 6.4978-5.0832 16.431-3.6166 22.171 3.2738z"/>
  <path d="m216.97 31.394c-0.7524-0.91425-1.621-1.738-2.5473-2.4544-0.19124-0.14792-0.37749-0.31113-0.57532-0.4494-0.20422-0.1427-0.39482-0.29361-0.60574-0.42557-6.5414-4.6372-17.681-3.6211-22.908 4.279-5.4188 7.9799-1.8704 18.434 5.2534 22.524 6.6131 4.4852 17.755 3.1775 22.737-4.8453 3.9923-6.2541 2.7082-13.691-1.3547-18.628zm-4.4771 5.901c1.113 1.336 0.92644 3.2728-0.41652 4.3234-1.3429 1.0506-3.3362 0.81906-4.4493-0.51688-1.113-1.3359-0.92644-3.2728 0.41653-4.3234s3.3362-0.81906 4.4492 0.51685zm-8.7078-4.1811c1.113 1.3359 0.92644 3.2728-0.41652 4.3234s-3.3362 0.81906-4.4493-0.51688c-1.113-1.336-0.92644-3.2728 0.41652-4.3234 1.3429-1.0507 3.3362-0.81903 4.4493 0.51685zm4.7011 11.913c1.113 1.3359 0.92641 3.2728-0.41655 4.3234-1.3429 1.0506-3.3362 0.81903-4.4492-0.51691s-0.92644-3.2728 0.41652-4.3234 3.3362-0.81906 4.4493 0.51688zm-8.7078-4.1811c1.113 1.3359 0.92644 3.2728-0.41653 4.3234-1.3429 1.0506-3.3362 0.819-4.4492-0.51688s-0.92644-3.2728 0.41652-4.3234 3.3362-0.81906 4.4493 0.51691z"/>
  <path d="m207.73 49.651c-1.2446 0.95215-3.1118 0.67658-4.1681-0.61517-1.0562-1.2918-0.90335-3.1129 0.34122-4.0651 1.2445-0.95212 3.1119-0.67651 4.1681 0.61523 1.0562 1.2918 0.90335 3.1129-0.34122 4.0651zm-8.7381-4.4106c-1.2446 0.95218-3.1118 0.67658-4.1681-0.61523-1.0562-1.2917-0.90337-3.1129 0.34119-4.0651 1.2446-0.95215 3.1119-0.67654 4.1681 0.61523s0.90334 3.1129-0.3412 4.0651zm12.785-3.3094c-1.2445 0.95215-3.1118 0.67658-4.1681-0.61523-1.0562-1.2918-0.90334-3.1128 0.3412-4.0651 1.2446-0.95215 3.1119-0.67651 4.1681 0.61523 1.0562 1.2918 0.90335 3.1129-0.34123 4.0651zm-8.7381-4.4106c-1.2446 0.95218-3.1118 0.67658-4.1681-0.61523-1.0562-1.2917-0.90335-3.1129 0.3412-4.0651 1.2446-0.95215 3.1119-0.67651 4.1681 0.61523 1.0562 1.2918 0.90334 3.1128-0.3412 4.0651z"/>
  <path d="m126.89 231.87c-1.6582-0.01413-3.3557 0.21535-5.0312 0.71875l-28.281 8.5c-8.936 2.6847-13.966 12.033-11.281 20.969l8.6562 28.781c2.6847 8.9361 12.033 13.966 20.969 11.281l28.281-8.4688c8.936-2.6846 13.966-12.064 11.281-21l-8.6562-28.781c-2.1813-7.2605-8.7518-11.939-15.938-12zm-9.3437 16.75c0.36203-0.016968 0.7272 0 1.0938 0 11.73 0 21.25 8.792 21.25 19.625s-9.52 19.625-21.25 19.625-21.25-8.792-21.25-19.625c0-10.494 8.9335-19.099 20.156-19.625z"/>
  <path d="m126.77 231.74c-1.6582-0.014099-3.3557 0.21536-5.0312 0.71876l-28.281 8.5c-8.936 2.6847-13.966 12.033-11.281 20.969l8.6562 28.781c2.6847 8.9361 12.033 13.966 20.969 11.281l28.281-8.4688c8.936-2.6846 13.966-12.064 11.281-21l-8.6563-28.781c-2.1813-7.2605-8.7517-11.939-15.938-12zm-18.438 27.969c2.346 0 4.25 1.932 4.25 4.3125s-1.904 4.3125-4.25 4.3125-4.25-1.932-4.25-4.3125 1.904-4.3125 4.25-4.3125zm14.375 8.1875c2.346 0 4.25 1.932 4.25 4.3125 0 2.3806-1.904 4.3125-4.25 4.3125s-4.25-1.932-4.25-4.3125 1.904-4.3125 4.25-4.3125z"/>
  <path d="m126.24 232.84c-1.6582-0.014114-3.3557 0.21539-5.0312 0.71876l-26.25 7.9062c-8.936 2.6847-13.966 12.033-11.281 20.969l8.1875 27.188c2.6847 8.9361 12.033 13.966 20.969 11.281l26.25-7.875c8.936-2.6847 13.966-12.064 11.281-21l-8.1875-27.188c-2.1813-7.2605-8.7518-11.939-15.938-12zm-17.906 27c2.346 0 4.25 1.932 4.25 4.3125 0 2.3806-1.904 4.3125-4.25 4.3125s-4.25-1.932-4.25-4.3125 1.904-4.3125 4.25-4.3125zm14.375 8.1875c2.346 0 4.25 1.932 4.25 4.3125 0 2.3806-1.904 4.3125-4.25 4.3125s-4.25-1.932-4.25-4.3125 1.904-4.3125 4.25-4.3125z"/>
  <path d="m122.74 236.06c-1.6582-0.014084-3.3557 0.21538-5.0312 0.71876l-19.75 5.9375c-8.936 2.6847-13.966 12.033-11.281 20.969l6.6875 22.219c2.6847 8.9361 12.033 13.966 20.969 11.281l19.75-5.9063c8.936-2.6847 13.966-12.064 11.281-21l-6.6875-22.219c-2.1813-7.2605-8.7517-11.939-15.938-12zm-14.406 23.781c2.346 0 4.25 1.932 4.25 4.3125 0 2.3806-1.904 4.3125-4.25 4.3125s-4.25-1.932-4.25-4.3125 1.904-4.3125 4.25-4.3125zm14.375 8.1875c2.346 0 4.25 1.932 4.25 4.3125 0 2.3806-1.904 4.3125-4.25 4.3125s-4.25-1.932-4.25-4.3125 1.904-4.3125 4.25-4.3125z"/>
  <path d="m111.91 263.86a3.9913 3.9913 0 1 1 -7.9826 0"/>
  <path d="m126.67 272.16a3.9913 3.9913 0 1 1 -7.9826 0"/>
  <path d="m121.77 268.86c-2.9582-1.0038-8.2058-1.4076-9.5589-4.6506-1.3315-3.1912-7.2169-0.39249-6.4546 3.084 0.79575 3.6289 8.1626 5.5407 13.121 6.8609 2.5826 0.68759 5.4772-4.417 2.8922-5.2942z"/>
  <path d="m270.62 11.623c-21.136 4.9526-31.192 32.766-17.803 49.454 11.116 15.868 37.545 18.321 51.026 3.9909 13.424-13.051 12.145-37.524-3.8412-48.202-8.2581-6.0226-19.449-8.1524-29.382-5.2434zm5.1461 11.152c14.338-4.3552 30.891 10.019 26.107 24.359-3.6974 13.884-23.19 20.645-34.752 11.274-9.1602-6.7627-10.914-21.052-2.5287-29.115 2.9382-3.2072 6.9143-5.446 11.174-6.5181z"/>
  <path d="m280.37 9.9644c-2.3984-0.014252-4.7775 0.2432-7.0773 0.74655-0.47476 0.10391-0.97732 0.23202-1.445 0.35834-0.48267 0.1304-0.94156 0.23386-1.4155 0.38824-15.567 4.092-27.846 22.359-21.763 40.404 5.9697 18.441 27.102 26.374 42.523 20.695 15.414-4.3953 27.255-23.084 20.672-40.912-4.9966-14.064-18.543-21.603-31.494-21.68zm0.9731 17.589c8.3343 0 15.098 6.4216 15.098 14.334 0 7.9123-6.764 14.334-15.098 14.334-8.3343 0-15.098-6.4216-15.098-14.334 0-7.9123 6.764-14.334 15.098-14.334z"/>
  <path d="m279.61 11.039c-2.0746 0.042053-4.1408 0.2662-6.1632 0.68683-8.0894 1.6825-15.513 6.3396-20.347 13.587-9.669 14.496-5.3288 33.876 9.6723 43.241 15.001 9.3643 35.007 5.1784 44.676-9.3171s5.3289-33.846-9.6723-43.211c-5.6254-3.5117-11.941-5.1132-18.165-4.987zm0.5603 16.753c8.3343 0 15.098 6.4216 15.098 14.334s-6.764 14.334-15.098 14.334c-8.3343 0-15.098-6.4216-15.098-14.334 0-7.9123 6.764-14.334 15.098-14.334z"/>
  <path d="m276.98 16.564c-6.158-0.13766-12.061 3.3977-14.744 9.4664l-5.308 12.005c-3.5782 8.0916-0.028412 17.519 7.962 21.142l13.506 6.1218c7.9904 3.6235 17.3 0.028748 20.878-8.0628l5.308-12.005c3.5782-8.0916 0.028442-17.519-7.962-21.142l-13.506-6.1218c-1.9976-0.90588-4.081-1.3576-6.1337-1.4035zm4.3643 10.989c8.3343 0 15.098 6.4216 15.098 14.334 0 7.9123-6.764 14.334-15.098 14.334-8.3343 0-15.098-6.4216-15.098-14.334 0-7.9123 6.764-14.334 15.098-14.334z"/>
  <path d="m278.1 19.341c-6.1931-0.13846-12.134 3.4229-14.833 9.5261l-3.5387 7.9732c-3.5985 8.1376-0.014862 17.618 8.021 21.262l9.7313 4.4196c8.0358 3.6441 17.398 0.015045 20.996-8.1226l3.5387-7.9733c3.5985-8.1376 0.014893-17.618-8.021-21.262l-9.7313-4.4196c-2.0089-0.91104-4.0988-1.3574-6.1632-1.4036zm2.3001 8.2122c8.3343 0 15.098 6.4216 15.098 14.334 0 7.9123-6.764 14.334-15.098 14.334-8.3342 0-15.098-6.4216-15.098-14.334 0-7.9123 6.764-14.334 15.098-14.334z"/>
  <path d="m278.97 21.851c-6.193-0.13849-12.134 3.4228-14.833 9.5261l-2.4181 5.4648c-3.5985 8.1376-0.044342 17.618 7.9915 21.262l5.8093 2.6279c8.0358 3.6441 17.398 0.015076 20.996-8.1226l2.4181-5.4648c3.5985-8.1376 0.044373-17.618-7.9914-21.262l-5.8093-2.6279c-2.009-0.91101-4.0988-1.3574-6.1632-1.4035zm1.3565 6.3009c7.8981 0 14.352 5.772 15.01 13.11 0.047394 0.4425 0.084534 0.89038 0.08847 1.3438-0.003937 0.45343-0.041077 0.90131-0.08847 1.3438-0.65744 7.3376-7.1117 13.11-15.01 13.11-7.8981 0-14.352-5.772-15.01-13.11-0.043182-0.40332-0.081268-0.81189-0.08844-1.2244 0-0.040222-3.66e-4 -0.079315 0-0.11945-3.66e-4 -0.040131 0-0.079224 0-0.11945 0-0.41409 0.052124-0.81915 0.08844-1.2244 0.65747-7.3376 7.1118-13.11 15.01-13.11z"/>
  <path d="m275.93 26.783c-10.126 2.4119-14.944 15.957-8.529 24.084 5.3257 7.7278 17.987 8.9221 24.445 1.9436 6.4313-6.356 5.8186-18.274-1.8402-23.474-3.9563-2.933-9.3176-3.9702-14.076-2.5536zm2.4654 5.4313c6.869-2.121 14.799 4.8792 12.507 11.863-1.7714 6.7613-11.11 10.054-16.649 5.4903-4.3885-3.2934-5.2288-10.253-1.2114-14.179 1.4076-1.5619 3.3125-2.6522 5.3531-3.1743z"/>
  <path d="m280.37 26.21c-1.149-0.006927-2.2894 0.11322-3.3912 0.35837-0.22748 0.050598-0.45422 0.11764-0.67825 0.17917-0.23123 0.063507-0.4512 0.104-0.67825 0.17917-7.458 1.9928-13.353 10.892-10.439 19.679 2.8599 8.9806 12.989 12.859 20.377 10.094 7.3846-2.1405 13.062-11.266 9.9083-19.948-2.3937-6.8489-8.8936-10.504-15.098-10.541zm3.2143 6.8684c2.0258 0 3.6861 1.6813 3.6861 3.7328 0 2.0514-1.6603 3.7029-3.6861 3.7029s-3.6566-1.6515-3.6566-3.7029 1.6308-3.7328 3.6566-3.7328zm-4.9836 10.302c2.0258 0 3.6566 1.6814 3.6566 3.7328s-1.6308 3.7029-3.6566 3.7029-3.6861-1.6515-3.6861-3.7029 1.6603-3.7328 3.6861-3.7328z"/>
  <path d="m280.23 26.747c-0.99384 0.020477-1.9505 0.12366-2.9194 0.32849-3.8754 0.81937-7.4447 3.0699-9.7608 6.5996-4.6322 7.0593-2.557 16.492 4.6297 21.053 7.1868 4.5604 16.777 2.5501 21.409-4.5092 4.6322-7.0593 2.557-16.492-4.6298-21.053-2.695-1.7102-5.747-2.4803-8.7287-2.4188zm3.3618 6.3308c2.0258 0 3.6861 1.6813 3.6861 3.7328 0 2.0514-1.6603 3.7029-3.6861 3.7029s-3.6566-1.6515-3.6566-3.7029 1.6308-3.7328 3.6566-3.7328zm-5.0131 10.302c2.0258 0 3.6861 1.6814 3.6861 3.7328-3.1e-5 2.0514-1.6603 3.7029-3.6861 3.7029s-3.6566-1.6515-3.6566-3.7029 1.6308-3.7328 3.6566-3.7328z"/>
  <path d="m287.21 36.909c0 1.854-1.5443 3.3588-3.4471 3.3588s-3.4471-1.5047-3.4471-3.3588c0-1.854 1.5443-3.3587 3.4471-3.3587s3.4471 1.5047 3.4471 3.3587zm-5.2149 10.253c0 1.854-1.5443 3.3588-3.4471 3.3588s-3.4472-1.5047-3.4472-3.3588c0-1.854 1.5443-3.3588 3.4472-3.3588 1.9028 0 3.4471 1.5047 3.4471 3.3588z"/>
  <path d="m260.88 231.09c-22.398 5.1827-33.055 34.289-18.866 51.752 11.78 16.606 39.788 19.172 54.073 4.1763 14.226-13.658 12.871-39.267-4.0705-50.442-8.7513-6.3024-20.611-8.5312-31.136-5.4871zm5.4534 11.671c15.194-4.5575 32.736 10.484 27.666 25.491-3.9183 14.529-24.574 21.604-36.827 11.798-9.7073-7.077-11.566-22.031-2.6797-30.468 3.1137-3.3563 7.3273-5.699 11.841-6.821z"/>
  <path d="m270.4 229.4c-2.5416-0.014923-5.0628 0.25452-7.5 0.78125-0.50317 0.10875-1.0357 0.24281-1.5312 0.375-0.51154 0.13646-0.9978 0.24472-1.5 0.40625-16.497 4.2822-29.509 23.367-23.062 42.25 6.3262 19.298 28.721 27.631 45.062 21.688 16.335-4.5996 28.883-24.187 21.906-42.844-5.2949-14.717-19.65-22.576-33.375-22.656zm6.0312 23.844c2.07 0 3.75 1.624 3.75 3.625 3.1e-5 2.001-1.68 3.625-3.75 3.625s-3.75-1.624-3.75-3.625c3.1e-5 -2.001 1.68-3.625 3.75-3.625zm-13.25 1.125c2.07 0 3.75 1.624 3.75 3.625 3.1e-5 2.001-1.68 3.625-3.75 3.625s-3.75-1.624-3.75-3.625 1.68-3.625 3.75-3.625zm13.625 12.062c2.07 0 3.75 1.624 3.75 3.625 3.1e-5 2.0009-1.68 3.625-3.75 3.625s-3.75-1.6241-3.75-3.625c0-2.001 1.68-3.625 3.75-3.625zm-13.25 1.1249c2.07 0 3.75 1.624 3.75 3.6251 0 2.001-1.68 3.625-3.75 3.625s-3.75-1.624-3.75-3.625c3.1e-5 -2.001 1.68-3.6251 3.75-3.6251z"/>
  <path d="m270.28 230.31c-2.1985 0.043991-4.3569 0.24733-6.5 0.6875-8.5724 1.7607-16.439 6.6342-21.562 14.219-10.246 15.169-5.6471 35.45 10.25 45.25 15.897 9.7995 37.097 5.4504 47.344-9.7188 10.246-15.169 5.6471-35.419-10.25-45.219-5.9614-3.6748-12.686-5.3508-19.281-5.2188zm6.5625 23.125c2.07 0 3.75 1.624 3.75 3.625s-1.68 3.625-3.75 3.625-3.75-1.624-3.75-3.625 1.68-3.625 3.75-3.625zm-13.25 1.125c2.07 0 3.75 1.624 3.75 3.625s-1.68 3.625-3.75 3.625-3.75-1.624-3.75-3.625 1.68-3.625 3.75-3.625zm13.625 12.062c2.07 0 3.75 1.624 3.75 3.625s-1.68 3.625-3.75 3.625-3.75-1.624-3.75-3.625 1.68-3.625 3.75-3.625zm-13.25 1.125c2.07 0 3.75 1.624 3.75 3.625s-1.68 3.625-3.75 3.625-3.75-1.624-3.75-3.625 1.68-3.625 3.75-3.625z"/>
  <path d="m270 237c-18.375-0.48805-33.449 21.54-24.281 38.031 8.4666 17.937 37.378 21.072 48.812 4.0625 8.7958-11.646 5.6265-30.094-7.1875-37.406-5.1091-3.3172-11.244-4.9681-17.344-4.6875zm6.9688 16.438c2.07 0 3.75 1.624 3.75 3.625s-1.68 3.625-3.75 3.625-3.75-1.624-3.75-3.625 1.68-3.625 3.75-3.625zm-13.25 1.125c2.07 0 3.75 1.624 3.75 3.625s-1.68 3.625-3.75 3.625-3.75-1.624-3.75-3.625 1.68-3.625 3.75-3.625zm13.625 12.062c2.07 0 3.75 1.624 3.75 3.625s-1.68 3.625-3.75 3.625-3.75-1.624-3.75-3.625 1.68-3.625 3.75-3.625zm-13.25 1.125c2.07 0 3.75 1.624 3.75 3.625s-1.68 3.625-3.75 3.625-3.75-1.624-3.75-3.625 1.68-3.625 3.75-3.625z"/>
  <path d="m269.8 237.07c-18.375-0.48807-33.449 21.54-24.281 38.031 8.4666 17.937 37.378 21.072 48.812 4.0625 8.7958-11.646 5.6265-30.094-7.1875-37.406-5.1091-3.3171-11.244-4.9681-17.344-4.6875zm6.9687 16.438c2.07 0 3.75 1.624 3.75 3.625s-1.68 3.625-3.75 3.625-3.75-1.624-3.75-3.625 1.68-3.625 3.75-3.625zm-13.25 1.125c2.07 0 3.75 1.624 3.75 3.625s-1.68 3.625-3.75 3.625-3.75-1.624-3.75-3.625 1.68-3.625 3.75-3.625zm13.625 12.062c2.07 0 3.75 1.624 3.75 3.625s-1.68 3.625-3.75 3.625-3.75-1.624-3.75-3.625 1.68-3.625 3.75-3.625zm-13.25 1.125c2.07 0 3.75 1.624 3.75 3.625s-1.68 3.625-3.75 3.625-3.75-1.624-3.75-3.625 1.68-3.625 3.75-3.625z"/>
  <path d="m278.16 266.8c-6.2737-2.2423-8.5955-2.2767-10.443-9.4236-1.2432-4.8095-8.0062-0.11908-6.4546 3.084 3.347 6.9092 8.6288 10.907 13.652 11.987 3.4889 0.75012 7.0309-4.2949 3.2457-5.6478z"/>
  <g transform="rotate(87.991 190.45 113.11)">
   <path d="m182.04 79.167c-22.398 5.1827-33.055 34.289-18.866 51.752 11.78 16.606 39.788 19.172 54.073 4.1763 14.226-13.658 12.871-39.267-4.0705-50.442-8.7513-6.3024-20.611-8.5312-31.136-5.4871zm5.4534 11.671c15.194-4.5575 32.736 10.484 27.666 25.491-3.9183 14.529-24.574 21.604-36.827 11.798-9.7073-7.077-11.566-22.031-2.6797-30.468 3.1137-3.3563 7.3273-5.699 11.841-6.821z"/>
   <path d="m191.56 77.477c-2.5416-0.014923-5.0628 0.25452-7.5 0.78125-0.50317 0.10873-1.0357 0.2428-1.5312 0.375-0.51154 0.13644-0.9978 0.24472-1.5 0.40625-16.497 4.2822-29.509 23.367-23.062 42.25 6.3262 19.298 28.721 27.631 45.062 21.688 16.335-4.5996 28.883-24.187 21.906-42.844-5.2949-14.717-19.65-22.576-33.375-22.656zm6.0312 23.844c2.07 0 3.75 1.624 3.75 3.625 3.1e-5 2.001-1.68 3.625-3.75 3.625s-3.75-1.624-3.75-3.625c3.1e-5 -2.001 1.68-3.625 3.75-3.625zm-13.25 1.125c2.07 0 3.75 1.624 3.75 3.625 3.1e-5 2.001-1.68 3.625-3.75 3.625s-3.75-1.624-3.75-3.625 1.68-3.625 3.75-3.625zm13.625 12.062c2.07 0 3.75 1.624 3.75 3.625 3.1e-5 2.001-1.68 3.625-3.75 3.625s-3.75-1.624-3.75-3.625 1.68-3.625 3.75-3.625zm-13.25 1.125c2.07 0 3.75 1.624 3.75 3.625s-1.68 3.625-3.75 3.625-3.75-1.624-3.75-3.625c3.1e-5 -2.001 1.68-3.625 3.75-3.625z"/>
   <path d="m191.43 78.385c-2.1985 0.044006-4.3569 0.24734-6.5 0.6875-8.5724 1.7607-16.439 6.6342-21.562 14.219-10.246 15.169-5.6471 35.45 10.25 45.25 15.897 9.7995 37.097 5.4504 47.344-9.7188 10.246-15.169 5.6471-35.419-10.25-45.219-5.9614-3.6748-12.686-5.3508-19.281-5.2188zm6.5625 23.125c2.07 0 3.75 1.624 3.75 3.625s-1.68 3.625-3.75 3.625-3.75-1.624-3.75-3.625 1.68-3.625 3.75-3.625zm-13.25 1.125c2.07 0 3.75 1.624 3.75 3.625s-1.68 3.625-3.75 3.625-3.75-1.624-3.75-3.625 1.68-3.625 3.75-3.625zm13.625 12.062c2.07 0 3.75 1.624 3.75 3.625s-1.68 3.625-3.75 3.625-3.75-1.624-3.75-3.625 1.68-3.625 3.75-3.625zm-13.25 1.125c2.07 0 3.75 1.624 3.75 3.625s-1.68 3.625-3.75 3.625-3.75-1.624-3.75-3.625 1.68-3.625 3.75-3.625z"/>
   <path d="m191.15 85.073c-18.375-0.48804-33.449 21.54-24.281 38.031 8.4666 17.937 37.378 21.072 48.812 4.0625 8.7958-11.646 5.6265-30.094-7.1875-37.406-5.1091-3.3172-11.244-4.9681-17.344-4.6875zm6.9688 16.438c2.07 0 3.75 1.624 3.75 3.625s-1.68 3.625-3.75 3.625-3.75-1.624-3.75-3.625 1.68-3.625 3.75-3.625zm-13.25 1.125c2.07 0 3.75 1.624 3.75 3.625s-1.68 3.625-3.75 3.625-3.75-1.624-3.75-3.625 1.68-3.625 3.75-3.625zm13.625 12.062c2.07 0 3.75 1.624 3.75 3.625s-1.68 3.625-3.75 3.625-3.75-1.624-3.75-3.625 1.68-3.625 3.75-3.625zm-13.25 1.125c2.07 0 3.75 1.624 3.75 3.625s-1.68 3.625-3.75 3.625-3.75-1.624-3.75-3.625 1.68-3.625 3.75-3.625z"/>
   <path d="m190.95 85.143c-18.375-0.48807-33.449 21.54-24.281 38.031 8.4666 17.937 37.378 21.072 48.812 4.0625 8.7958-11.646 5.6265-30.094-7.1875-37.406-5.1091-3.3171-11.244-4.9681-17.344-4.6875zm6.9687 16.438c2.07 0 3.75 1.624 3.75 3.625s-1.68 3.625-3.75 3.625-3.75-1.624-3.75-3.625 1.68-3.625 3.75-3.625zm-13.25 1.125c2.07 0 3.75 1.624 3.75 3.625s-1.68 3.625-3.75 3.625-3.75-1.624-3.75-3.625 1.68-3.625 3.75-3.625zm13.625 12.062c2.07 0 3.75 1.624 3.75 3.625s-1.68 3.625-3.75 3.625-3.75-1.624-3.75-3.625 1.68-3.625 3.75-3.625zm-13.25 1.125c2.07 0 3.75 1.624 3.75 3.625s-1.68 3.625-3.75 3.625-3.75-1.624-3.75-3.625 1.68-3.625 3.75-3.625z"/>
   <path d="m199.31 114.87c-6.2737-2.2423-8.5955-2.2767-10.443-9.4236-1.2432-4.8095-8.0062-0.11905-6.4546 3.084 3.347 6.9092 8.6288 10.907 13.652 11.987 3.4889 0.75009 7.0309-4.2949 3.2457-5.6478z"/>
  </g>
 </g>
</svg>
