<svg xmlns="http://www.w3.org/2000/svg" width="1920" height="1080"><path d="M2080,-160L1940,-160L2080,-20Z" fill="#a699a3" stroke="#a699a3" stroke-width="1.51"/><path d="M1940,-160L1940,-20L2080,-20Z" fill="#a79aa4" stroke="#a79aa4" stroke-width="1.51"/><path d="M2080,-20L1940,-20L2080,120Z" fill="#aea2ab" stroke="#aea2ab" stroke-width="1.51"/><path d="M1940,-20L1940,120L2080,120Z" fill="#afa3ad" stroke="#afa3ad" stroke-width="1.51"/><path d="M2080,120L1940,120L2080,260Z" fill="#b6abb3" stroke="#b6abb3" stroke-width="1.51"/><path d="M1940,120L1940,260L2080,260Z" fill="#b7acb5" stroke="#b7acb5" stroke-width="1.51"/><path d="M2080,260L1940,260L2080,400Z" fill="#beb5bc" stroke="#beb5bc" stroke-width="1.51"/><path d="M1940,260L1940,400L2080,400Z" fill="#bfb5bd" stroke="#bfb5bd" stroke-width="1.51"/><path d="M2080,400L1940,400L2080,540Z" fill="#c7bec4" stroke="#c7bec4" stroke-width="1.51"/><path d="M1940,400L1940,540L2080,540Z" fill="#c7bfc6" stroke="#c7bfc6" stroke-width="1.51"/><path d="M2080,540L1940,540L2080,680Z" fill="#cfc7cd" stroke="#cfc7cd" stroke-width="1.51"/><path d="M1940,540L1940,680L2080,680Z" fill="#d0c8ce" stroke="#d0c8ce" stroke-width="1.51"/><path d="M1940,960L2080,960L2080,820Z" fill="#e2dee1" stroke="#e2dee1" stroke-width="1.51"/><path d="M1940,820L1940,960L2080,820Z" fill="#ded8dd" stroke="#ded8dd" stroke-width="1.51"/><path d="M2080,680L1940,680L2080,820Z" fill="#d7d1d6" stroke="#d7d1d6" stroke-width="1.51"/><path d="M1940,680L1940,820L2080,820Z" fill="#d8d2d7" stroke="#d8d2d7" stroke-width="1.51"/><path d="M2080,960L1940,960L2080,1100Z" fill="#e8e4e7" stroke="#e8e4e7" stroke-width="1.51"/><path d="M1940,960L1940,1100L2080,1100Z" fill="#e9e5e8" stroke="#e9e5e8" stroke-width="1.51"/><path d="M2080,1100L1940,1100L2080,1240Z" fill="#f0eeef" stroke="#f0eeef" stroke-width="1.51"/><path d="M1940,1100L1940,1240L2080,1240Z" fill="#f2eff1" stroke="#f2eff1" stroke-width="1.51"/><path d="M1940,-160L1800,-160L1940,-20Z" fill="#a1939e" stroke="#a1939e" stroke-width="1.51"/><path d="M1800,-160L1800,-20L1940,-20Z" fill="#a2949f" stroke="#a2949f" stroke-width="1.51"/><path d="M1940,-20L1800,-20L1940,120Z" fill="#a99da6" stroke="#a99da6" stroke-width="1.51"/><path d="M1800,-20L1800,120L1940,120Z" fill="#aa9da7" stroke="#aa9da7" stroke-width="1.51"/><path d="M1800,960L1940,960L1940,820Z" fill="#ddd8dc" stroke="#ddd8dc" stroke-width="1.51"/><path d="M1800,820L1800,960L1940,820Z" fill="#d8d2d7" stroke="#d8d2d7" stroke-width="1.51"/><path d="M1940,400L1800,400L1940,540Z" fill="#c1b8bf" stroke="#c1b8bf" stroke-width="1.51"/><path d="M1800,400L1800,540L1940,540Z" fill="#c2b9c0" stroke="#c2b9c0" stroke-width="1.51"/><path d="M1800,820L1940,820L1940,680Z" fill="#d5ced3" stroke="#d5ced3" stroke-width="1.51"/><path d="M1800,680L1800,820L1940,680Z" fill="#d0c9ce" stroke="#d0c9ce" stroke-width="1.51"/><path d="M1940,540L1800,540L1940,680Z" fill="#cac1c7" stroke="#cac1c7" stroke-width="1.51"/><path d="M1800,540L1800,680L1940,680Z" fill="#cac2c9" stroke="#cac2c9" stroke-width="1.51"/><path d="M1940,960L1800,960L1940,1100Z" fill="#e2dee1" stroke="#e2dee1" stroke-width="1.51"/><path d="M1800,960L1800,1100L1940,1100Z" fill="#e3dfe2" stroke="#e3dfe2" stroke-width="1.51"/><path d="M1800,1240L1940,1240L1940,1100Z" fill="#eeebed" stroke="#eeebed" stroke-width="1.51"/><path d="M1800,1100L1800,1240L1940,1100Z" fill="#e9e5e8" stroke="#e9e5e8" stroke-width="1.51"/><path d="M1940,120L1800,120L1940,260Z" fill="#b1a5ae" stroke="#b1a5ae" stroke-width="1.51"/><path d="M1800,120L1800,260L1940,260Z" fill="#b2a6b0" stroke="#b2a6b0" stroke-width="1.51"/><path d="M1800,400L1940,400L1940,260Z" fill="#bcb2b9" stroke="#bcb2b9" stroke-width="1.51"/><path d="M1800,260L1800,400L1940,260Z" fill="#b7adb5" stroke="#b7adb5" stroke-width="1.51"/><path d="M1800,-160L1660,-160L1800,-20Z" fill="#9c8d99" stroke="#9c8d99" stroke-width="1.51"/><path d="M1660,-160L1660,-20L1800,-20Z" fill="#9d8f9a" stroke="#9d8f9a" stroke-width="1.51"/><path d="M1800,-20L1660,-20L1800,120Z" fill="#a496a1" stroke="#a496a1" stroke-width="1.51"/><path d="M1660,-20L1660,120L1800,120Z" fill="#a597a2" stroke="#a597a2" stroke-width="1.51"/><path d="M1660,400L1800,400L1800,260Z" fill="#b7abb4" stroke="#b7abb4" stroke-width="1.51"/><path d="M1660,260L1660,400L1800,260Z" fill="#b2a7b0" stroke="#b2a7b0" stroke-width="1.51"/><path d="M1800,120L1660,120L1800,260Z" fill="#ac9fa9" stroke="#ac9fa9" stroke-width="1.51"/><path d="M1660,120L1660,260L1800,260Z" fill="#aca0aa" stroke="#aca0aa" stroke-width="1.51"/><path d="M1800,400L1660,400L1800,540Z" fill="#bcb2ba" stroke="#bcb2ba" stroke-width="1.51"/><path d="M1660,400L1660,540L1800,540Z" fill="#bdb3ba" stroke="#bdb3ba" stroke-width="1.51"/><path d="M1800,540L1660,540L1800,680Z" fill="#c4bbc2" stroke="#c4bbc2" stroke-width="1.51"/><path d="M1660,540L1660,680L1800,680Z" fill="#c5bcc3" stroke="#c5bcc3" stroke-width="1.51"/><path d="M1800,680L1660,680L1800,820Z" fill="#ccc5cb" stroke="#ccc5cb" stroke-width="1.51"/><path d="M1660,680L1660,820L1800,820Z" fill="#cdc6cc" stroke="#cdc6cc" stroke-width="1.51"/><path d="M1800,820L1660,820L1800,960Z" fill="#d5ced3" stroke="#d5ced3" stroke-width="1.51"/><path d="M1660,820L1660,960L1800,960Z" fill="#d5cfd4" stroke="#d5cfd4" stroke-width="1.51"/><path d="M1660,1240L1800,1240L1800,1100Z" fill="#e8e4e7" stroke="#e8e4e7" stroke-width="1.51"/><path d="M1660,1100L1660,1240L1800,1100Z" fill="#e3dfe2" stroke="#e3dfe2" stroke-width="1.51"/><path d="M1800,960L1660,960L1800,1100Z" fill="#ddd8dc" stroke="#ddd8dc" stroke-width="1.51"/><path d="M1660,960L1660,1100L1800,1100Z" fill="#ded9dd" stroke="#ded9dd" stroke-width="1.51"/><path d="M1660,-160L1520,-160L1660,-20Z" fill="#978894" stroke="#978894" stroke-width="1.51"/><path d="M1520,-160L1520,-20L1660,-20Z" fill="#978894" stroke="#978894" stroke-width="1.51"/><path d="M1660,-20L1520,-20L1660,120Z" fill="#9f919c" stroke="#9f919c" stroke-width="1.51"/><path d="M1520,-20L1520,120L1660,120Z" fill="#9f919d" stroke="#9f919d" stroke-width="1.51"/><path d="M1520,400L1660,400L1660,260Z" fill="#b1a6af" stroke="#b1a6af" stroke-width="1.51"/><path d="M1520,260L1520,400L1660,260Z" fill="#aca1aa" stroke="#aca1aa" stroke-width="1.51"/><path d="M1660,120L1520,120L1660,260Z" fill="#a699a4" stroke="#a699a4" stroke-width="1.51"/><path d="M1520,120L1520,260L1660,260Z" fill="#a79aa5" stroke="#a79aa5" stroke-width="1.51"/><path d="M1660,400L1520,400L1660,540Z" fill="#b7acb5" stroke="#b7acb5" stroke-width="1.51"/><path d="M1520,400L1520,540L1660,540Z" fill="#b7adb5" stroke="#b7adb5" stroke-width="1.51"/><path d="M1660,540L1520,540L1660,680Z" fill="#bfb5bd" stroke="#bfb5bd" stroke-width="1.51"/><path d="M1520,540L1520,680L1660,680Z" fill="#bfb6be" stroke="#bfb6be" stroke-width="1.51"/><path d="M1660,680L1520,680L1660,820Z" fill="#c7bfc5" stroke="#c7bfc5" stroke-width="1.51"/><path d="M1520,680L1520,820L1660,820Z" fill="#c8bfc6" stroke="#c8bfc6" stroke-width="1.51"/><path d="M1520,1100L1660,1100L1660,960Z" fill="#dad5d9" stroke="#dad5d9" stroke-width="1.51"/><path d="M1520,960L1520,1100L1660,960Z" fill="#d5cfd4" stroke="#d5cfd4" stroke-width="1.51"/><path d="M1660,820L1520,820L1660,960Z" fill="#cfc8ce" stroke="#cfc8ce" stroke-width="1.51"/><path d="M1520,820L1520,960L1660,960Z" fill="#d0c9cf" stroke="#d0c9cf" stroke-width="1.51"/><path d="M1660,1100L1520,1100L1660,1240Z" fill="#e0dbdf" stroke="#e0dbdf" stroke-width="1.51"/><path d="M1520,1100L1520,1240L1660,1240Z" fill="#e1dce0" stroke="#e1dce0" stroke-width="1.51"/><path d="M1520,-160L1380,-160L1520,-20Z" fill="#91818e" stroke="#91818e" stroke-width="1.51"/><path d="M1380,-160L1380,-20L1520,-20Z" fill="#93838f" stroke="#93838f" stroke-width="1.51"/><path d="M1520,-20L1380,-20L1520,120Z" fill="#998b96" stroke="#998b96" stroke-width="1.51"/><path d="M1380,-20L1380,120L1520,120Z" fill="#9b8c97" stroke="#9b8c97" stroke-width="1.51"/><path d="M1520,120L1380,120L1520,260Z" fill="#a1939e" stroke="#a1939e" stroke-width="1.51"/><path d="M1380,120L1380,260L1520,260Z" fill="#a295a0" stroke="#a295a0" stroke-width="1.51"/><path d="M1520,260L1380,260L1520,400Z" fill="#a99da6" stroke="#a99da6" stroke-width="1.51"/><path d="M1380,260L1380,400L1520,400Z" fill="#ab9da8" stroke="#ab9da8" stroke-width="1.51"/><path d="M1520,400L1380,400L1520,540Z" fill="#b1a6af" stroke="#b1a6af" stroke-width="1.51"/><path d="M1380,400L1380,540L1520,540Z" fill="#b2a7b0" stroke="#b2a7b0" stroke-width="1.51"/><path d="M1520,540L1380,540L1520,680Z" fill="#b9afb7" stroke="#b9afb7" stroke-width="1.51"/><path d="M1380,540L1380,680L1520,680Z" fill="#bab0b8" stroke="#bab0b8" stroke-width="1.51"/><path d="M1520,680L1380,680L1520,820Z" fill="#c1b8bf" stroke="#c1b8bf" stroke-width="1.51"/><path d="M1380,680L1380,820L1520,820Z" fill="#c3b9c1" stroke="#c3b9c1" stroke-width="1.51"/><path d="M1520,820L1380,820L1520,960Z" fill="#cac2c8" stroke="#cac2c8" stroke-width="1.51"/><path d="M1380,820L1380,960L1520,960Z" fill="#cbc3c9" stroke="#cbc3c9" stroke-width="1.51"/><path d="M1520,960L1380,960L1520,1100Z" fill="#d2cbd0" stroke="#d2cbd0" stroke-width="1.51"/><path d="M1380,960L1380,1100L1520,1100Z" fill="#d3ccd2" stroke="#d3ccd2" stroke-width="1.51"/><path d="M1520,1100L1380,1100L1520,1240Z" fill="#dad5d9" stroke="#dad5d9" stroke-width="1.51"/><path d="M1380,1100L1380,1240L1520,1240Z" fill="#dcd6da" stroke="#dcd6da" stroke-width="1.51"/><path d="M1380,-160L1240,-160L1380,-20Z" fill="#8d7c89" stroke="#8d7c89" stroke-width="1.51"/><path d="M1240,-160L1240,-20L1380,-20Z" fill="#8d7d8a" stroke="#8d7d8a" stroke-width="1.51"/><path d="M1380,-20L1240,-20L1380,120Z" fill="#958591" stroke="#958591" stroke-width="1.51"/><path d="M1240,-20L1240,120L1380,120Z" fill="#958692" stroke="#958692" stroke-width="1.51"/><path d="M1380,120L1240,120L1380,260Z" fill="#9c8e99" stroke="#9c8e99" stroke-width="1.51"/><path d="M1240,120L1240,260L1380,260Z" fill="#9d8f9a" stroke="#9d8f9a" stroke-width="1.51"/><path d="M1240,1100L1380,1100L1380,960Z" fill="#d0c8ce" stroke="#d0c8ce" stroke-width="1.51"/><path d="M1240,960L1240,1100L1380,960Z" fill="#cbc3c9" stroke="#cbc3c9" stroke-width="1.51"/><path d="M1380,540L1240,540L1380,680Z" fill="#b4a9b2" stroke="#b4a9b2" stroke-width="1.51"/><path d="M1240,540L1240,680L1380,680Z" fill="#b5aab3" stroke="#b5aab3" stroke-width="1.51"/><path d="M1240,960L1380,960L1380,820Z" fill="#c7bfc6" stroke="#c7bfc6" stroke-width="1.51"/><path d="M1240,820L1240,960L1380,820Z" fill="#c3b9c1" stroke="#c3b9c1" stroke-width="1.51"/><path d="M1380,680L1240,680L1380,820Z" fill="#bcb2ba" stroke="#bcb2ba" stroke-width="1.51"/><path d="M1240,680L1240,820L1380,820Z" fill="#bdb3bb" stroke="#bdb3bb" stroke-width="1.51"/><path d="M1380,1100L1240,1100L1380,1240Z" fill="#d5cfd4" stroke="#d5cfd4" stroke-width="1.51"/><path d="M1240,1100L1240,1240L1380,1240Z" fill="#d6d0d5" stroke="#d6d0d5" stroke-width="1.51"/><path d="M1380,260L1240,260L1380,400Z" fill="#a497a2" stroke="#a497a2" stroke-width="1.51"/><path d="M1240,260L1240,400L1380,400Z" fill="#a598a2" stroke="#a598a2" stroke-width="1.51"/><path d="M1240,540L1380,540L1380,400Z" fill="#afa3ac" stroke="#afa3ac" stroke-width="1.51"/><path d="M1240,400L1240,540L1380,400Z" fill="#aa9ea8" stroke="#aa9ea8" stroke-width="1.51"/><path d="M1240,-160L1100,-160L1240,-20Z" fill="#877684" stroke="#877684" stroke-width="1.51"/><path d="M1100,-160L1100,-20L1240,-20Z" fill="#897885" stroke="#897885" stroke-width="1.51"/><path d="M1240,-20L1100,-20L1240,120Z" fill="#8f7f8c" stroke="#8f7f8c" stroke-width="1.51"/><path d="M1100,-20L1100,120L1240,120Z" fill="#90808d" stroke="#90808d" stroke-width="1.51"/><path d="M1240,120L1100,120L1240,260Z" fill="#978894" stroke="#978894" stroke-width="1.51"/><path d="M1100,120L1100,260L1240,260Z" fill="#988995" stroke="#988995" stroke-width="1.51"/><path d="M1240,260L1100,260L1240,400Z" fill="#9f919c" stroke="#9f919c" stroke-width="1.51"/><path d="M1100,260L1100,400L1240,400Z" fill="#a0929d" stroke="#a0929d" stroke-width="1.51"/><path d="M1240,400L1100,400L1240,540Z" fill="#a79aa4" stroke="#a79aa4" stroke-width="1.51"/><path d="M1100,400L1100,540L1240,540Z" fill="#a89ba5" stroke="#a89ba5" stroke-width="1.51"/><path d="M1240,540L1100,540L1240,680Z" fill="#afa3ac" stroke="#afa3ac" stroke-width="1.51"/><path d="M1100,540L1100,680L1240,680Z" fill="#b0a4ad" stroke="#b0a4ad" stroke-width="1.51"/><path d="M1240,680L1100,680L1240,820Z" fill="#b7acb5" stroke="#b7acb5" stroke-width="1.51"/><path d="M1100,680L1100,820L1240,820Z" fill="#b8adb6" stroke="#b8adb6" stroke-width="1.51"/><path d="M1240,820L1100,820L1240,960Z" fill="#bfb5bd" stroke="#bfb5bd" stroke-width="1.51"/><path d="M1100,820L1100,960L1240,960Z" fill="#c0b7be" stroke="#c0b7be" stroke-width="1.51"/><path d="M1240,960L1100,960L1240,1100Z" fill="#c7bfc6" stroke="#c7bfc6" stroke-width="1.51"/><path d="M1100,960L1100,1100L1240,1100Z" fill="#c9c0c7" stroke="#c9c0c7" stroke-width="1.51"/><path d="M1240,1100L1100,1100L1240,1240Z" fill="#d0c9ce" stroke="#d0c9ce" stroke-width="1.51"/><path d="M1100,1100L1100,1240L1240,1240Z" fill="#d1c9cf" stroke="#d1c9cf" stroke-width="1.51"/><path d="M1100,-160L960,-160L1100,-20Z" fill="#83717f" stroke="#83717f" stroke-width="1.51"/><path d="M960,-160L960,-20L1100,-20Z" fill="#837280" stroke="#837280" stroke-width="1.51"/><path d="M1100,-20L960,-20L1100,120Z" fill="#8a7a87" stroke="#8a7a87" stroke-width="1.51"/><path d="M960,-20L960,120L1100,120Z" fill="#8b7a87" stroke="#8b7a87" stroke-width="1.51"/><path d="M1100,120L960,120L1100,260Z" fill="#92828f" stroke="#92828f" stroke-width="1.51"/><path d="M960,120L960,260L1100,260Z" fill="#938390" stroke="#938390" stroke-width="1.51"/><path d="M1100,260L960,260L1100,400Z" fill="#9a8b97" stroke="#9a8b97" stroke-width="1.51"/><path d="M960,260L960,400L1100,400Z" fill="#9b8c97" stroke="#9b8c97" stroke-width="1.51"/><path d="M1100,680L960,680L1100,820Z" fill="#b2a6af" stroke="#b2a6af" stroke-width="1.51"/><path d="M960,680L960,820L1100,820Z" fill="#b3a7b0" stroke="#b3a7b0" stroke-width="1.51"/><path d="M960,1100L1100,1100L1100,960Z" fill="#c5bcc3" stroke="#c5bcc3" stroke-width="1.51"/><path d="M960,960L960,1100L1100,960Z" fill="#c0b7be" stroke="#c0b7be" stroke-width="1.51"/><path d="M1100,820L960,820L1100,960Z" fill="#baafb8" stroke="#baafb8" stroke-width="1.51"/><path d="M960,820L960,960L1100,960Z" fill="#bbb1b9" stroke="#bbb1b9" stroke-width="1.51"/><path d="M1100,1100L960,1100L1100,1240Z" fill="#cbc2c8" stroke="#cbc2c8" stroke-width="1.51"/><path d="M960,1100L960,1240L1100,1240Z" fill="#cbc3c9" stroke="#cbc3c9" stroke-width="1.51"/><path d="M1100,400L960,400L1100,540Z" fill="#a2949f" stroke="#a2949f" stroke-width="1.51"/><path d="M960,400L960,540L1100,540Z" fill="#a2959f" stroke="#a2959f" stroke-width="1.51"/><path d="M960,680L1100,680L1100,540Z" fill="#aca0aa" stroke="#aca0aa" stroke-width="1.51"/><path d="M960,540L960,680L1100,540Z" fill="#a89ba5" stroke="#a89ba5" stroke-width="1.51"/><path d="M820,1240L960,1240L960,1100Z" fill="#c8bfc6" stroke="#c8bfc6" stroke-width="1.51"/><path d="M820,1100L820,1240L960,1100Z" fill="#c3bac1" stroke="#c3bac1" stroke-width="1.51"/><path d="M820,1100L960,1100L960,960Z" fill="#c0b6bd" stroke="#c0b6bd" stroke-width="1.51"/><path d="M820,960L820,1100L960,960Z" fill="#bbb1b9" stroke="#bbb1b9" stroke-width="1.51"/><path d="M820,960L960,960L960,820Z" fill="#b7adb5" stroke="#b7adb5" stroke-width="1.51"/><path d="M820,820L820,960L960,820Z" fill="#b3a7b1" stroke="#b3a7b1" stroke-width="1.51"/><path d="M820,820L960,820L960,680Z" fill="#afa3ad" stroke="#afa3ad" stroke-width="1.51"/><path d="M820,680L820,820L960,680Z" fill="#ab9ea8" stroke="#ab9ea8" stroke-width="1.51"/><path d="M820,680L960,680L960,540Z" fill="#a79aa4" stroke="#a79aa4" stroke-width="1.51"/><path d="M820,540L820,680L960,540Z" fill="#a395a0" stroke="#a395a0" stroke-width="1.51"/><path d="M820,540L960,540L960,400Z" fill="#9f919c" stroke="#9f919c" stroke-width="1.51"/><path d="M820,400L820,540L960,400Z" fill="#9b8c98" stroke="#9b8c98" stroke-width="1.51"/><path d="M820,400L960,400L960,260Z" fill="#978894" stroke="#978894" stroke-width="1.51"/><path d="M820,260L820,400L960,260Z" fill="#938390" stroke="#938390" stroke-width="1.51"/><path d="M820,260L960,260L960,120Z" fill="#8f7f8c" stroke="#8f7f8c" stroke-width="1.51"/><path d="M820,120L820,260L960,120Z" fill="#8b7a88" stroke="#8b7a88" stroke-width="1.51"/><path d="M820,120L960,120L960,-20Z" fill="#887684" stroke="#887684" stroke-width="1.51"/><path d="M820,-20L820,120L960,-20Z" fill="#847280" stroke="#847280" stroke-width="1.51"/><path d="M820,-20L960,-20L960,-160Z" fill="#806e7c" stroke="#806e7c" stroke-width="1.51"/><path d="M820,-160L820,-20L960,-160Z" fill="#7c6978" stroke="#7c6978" stroke-width="1.51"/><path d="M680,1100L820,1100L820,960Z" fill="#bab0b8" stroke="#bab0b8" stroke-width="1.51"/><path d="M680,960L680,1100L820,960Z" fill="#b6abb3" stroke="#b6abb3" stroke-width="1.51"/><path d="M820,-160L680,-160L820,-20Z" fill="#786675" stroke="#786675" stroke-width="1.51"/><path d="M680,-160L680,-20L820,-20Z" fill="#7a6776" stroke="#7a6776" stroke-width="1.51"/><path d="M820,-20L680,-20L820,120Z" fill="#806f7d" stroke="#806f7d" stroke-width="1.51"/><path d="M680,-20L680,120L820,120Z" fill="#816f7d" stroke="#816f7d" stroke-width="1.51"/><path d="M680,960L820,960L820,820Z" fill="#b2a7b0" stroke="#b2a7b0" stroke-width="1.51"/><path d="M680,820L680,960L820,820Z" fill="#aea1ab" stroke="#aea1ab" stroke-width="1.51"/><path d="M820,400L680,400L820,540Z" fill="#978894" stroke="#978894" stroke-width="1.51"/><path d="M680,400L680,540L820,540Z" fill="#988995" stroke="#988995" stroke-width="1.51"/><path d="M680,820L820,820L820,680Z" fill="#aa9ea8" stroke="#aa9ea8" stroke-width="1.51"/><path d="M680,680L680,820L820,680Z" fill="#a699a3" stroke="#a699a3" stroke-width="1.51"/><path d="M820,540L680,540L820,680Z" fill="#9f919c" stroke="#9f919c" stroke-width="1.51"/><path d="M680,540L680,680L820,680Z" fill="#a0929d" stroke="#a0929d" stroke-width="1.51"/><path d="M820,1100L680,1100L820,1240Z" fill="#c0b6be" stroke="#c0b6be" stroke-width="1.51"/><path d="M680,1100L680,1240L820,1240Z" fill="#c1b7be" stroke="#c1b7be" stroke-width="1.51"/><path d="M820,120L680,120L820,260Z" fill="#887784" stroke="#887784" stroke-width="1.51"/><path d="M680,120L680,260L820,260Z" fill="#897885" stroke="#897885" stroke-width="1.51"/><path d="M680,400L820,400L820,260Z" fill="#92828f" stroke="#92828f" stroke-width="1.51"/><path d="M680,260L680,400L820,260Z" fill="#8e7e8a" stroke="#8e7e8a" stroke-width="1.51"/><path d="M680,-160L540,-160L680,-20Z" fill="#746070" stroke="#746070" stroke-width="1.51"/><path d="M540,-160L540,-20L680,-20Z" fill="#746271" stroke="#746271" stroke-width="1.51"/><path d="M680,-20L540,-20L680,120Z" fill="#7b6978" stroke="#7b6978" stroke-width="1.51"/><path d="M540,-20L540,120L680,120Z" fill="#7c6a78" stroke="#7c6a78" stroke-width="1.51"/><path d="M680,120L540,120L680,260Z" fill="#83717f" stroke="#83717f" stroke-width="1.51"/><path d="M540,120L540,260L680,260Z" fill="#837280" stroke="#837280" stroke-width="1.51"/><path d="M680,260L540,260L680,400Z" fill="#8a7a87" stroke="#8a7a87" stroke-width="1.51"/><path d="M540,260L540,400L680,400Z" fill="#8b7b88" stroke="#8b7b88" stroke-width="1.51"/><path d="M680,400L540,400L680,540Z" fill="#92828f" stroke="#92828f" stroke-width="1.51"/><path d="M540,400L540,540L680,540Z" fill="#938490" stroke="#938490" stroke-width="1.51"/><path d="M680,540L540,540L680,680Z" fill="#9a8b97" stroke="#9a8b97" stroke-width="1.51"/><path d="M540,540L540,680L680,680Z" fill="#9b8d98" stroke="#9b8d98" stroke-width="1.51"/><path d="M680,680L540,680L680,820Z" fill="#a295a0" stroke="#a295a0" stroke-width="1.51"/><path d="M540,680L540,820L680,820Z" fill="#a396a1" stroke="#a396a1" stroke-width="1.51"/><path d="M680,820L540,820L680,960Z" fill="#ab9da8" stroke="#ab9da8" stroke-width="1.51"/><path d="M540,820L540,960L680,960Z" fill="#ab9fa9" stroke="#ab9fa9" stroke-width="1.51"/><path d="M540,1240L680,1240L680,1100Z" fill="#bdb3bb" stroke="#bdb3bb" stroke-width="1.51"/><path d="M540,1100L540,1240L680,1100Z" fill="#b8aeb6" stroke="#b8aeb6" stroke-width="1.51"/><path d="M680,960L540,960L680,1100Z" fill="#b2a7b0" stroke="#b2a7b0" stroke-width="1.51"/><path d="M540,960L540,1100L680,1100Z" fill="#b3a8b1" stroke="#b3a8b1" stroke-width="1.51"/><path d="M540,-160L400,-160L540,-20Z" fill="#6f5b6b" stroke="#6f5b6b" stroke-width="1.51"/><path d="M400,-160L400,-20L540,-20Z" fill="#705c6c" stroke="#705c6c" stroke-width="1.51"/><path d="M540,-20L400,-20L540,120Z" fill="#766372" stroke="#766372" stroke-width="1.51"/><path d="M400,-20L400,120L540,120Z" fill="#776473" stroke="#776473" stroke-width="1.51"/><path d="M540,400L400,400L540,540Z" fill="#8d7d8a" stroke="#8d7d8a" stroke-width="1.51"/><path d="M400,400L400,540L540,540Z" fill="#8e7e8b" stroke="#8e7e8b" stroke-width="1.51"/><path d="M540,540L400,540L540,680Z" fill="#958692" stroke="#958692" stroke-width="1.51"/><path d="M400,540L400,680L540,680Z" fill="#968793" stroke="#968793" stroke-width="1.51"/><path d="M400,960L540,960L540,820Z" fill="#a89ba5" stroke="#a89ba5" stroke-width="1.51"/><path d="M400,820L400,960L540,820Z" fill="#a495a1" stroke="#a495a1" stroke-width="1.51"/><path d="M540,680L400,680L540,820Z" fill="#9d8f9a" stroke="#9d8f9a" stroke-width="1.51"/><path d="M400,680L400,820L540,820Z" fill="#9e909b" stroke="#9e909b" stroke-width="1.51"/><path d="M400,1240L540,1240L540,1100Z" fill="#b8adb5" stroke="#b8adb5" stroke-width="1.51"/><path d="M400,1100L400,1240L540,1100Z" fill="#b4a8b1" stroke="#b4a8b1" stroke-width="1.51"/><path d="M540,960L400,960L540,1100Z" fill="#ada1aa" stroke="#ada1aa" stroke-width="1.51"/><path d="M400,960L400,1100L540,1100Z" fill="#aea2ac" stroke="#aea2ac" stroke-width="1.51"/><path d="M540,120L400,120L540,260Z" fill="#7e6b7a" stroke="#7e6b7a" stroke-width="1.51"/><path d="M400,120L400,260L540,260Z" fill="#7f6d7b" stroke="#7f6d7b" stroke-width="1.51"/><path d="M400,400L540,400L540,260Z" fill="#887784" stroke="#887784" stroke-width="1.51"/><path d="M400,260L400,400L540,260Z" fill="#847280" stroke="#847280" stroke-width="1.51"/><path d="M400,-20L260,-20L400,120Z" fill="#715e6d" stroke="#715e6d" stroke-width="1.51"/><path d="M260,-20L260,120L400,120Z" fill="#725e6e" stroke="#725e6e" stroke-width="1.51"/><path d="M400,120L260,120L400,260Z" fill="#796675" stroke="#796675" stroke-width="1.51"/><path d="M260,120L260,260L400,260Z" fill="#7a6776" stroke="#7a6776" stroke-width="1.51"/><path d="M400,260L260,260L400,400Z" fill="#806f7d" stroke="#806f7d" stroke-width="1.51"/><path d="M260,260L260,400L400,400Z" fill="#826f7e" stroke="#826f7e" stroke-width="1.51"/><path d="M260,-20L400,-20L400,-160Z" fill="#6c5868" stroke="#6c5868" stroke-width="1.51"/><path d="M260,-160L260,-20L400,-160Z" fill="#685364" stroke="#685364" stroke-width="1.51"/><path d="M400,680L260,680L400,820Z" fill="#988995" stroke="#988995" stroke-width="1.51"/><path d="M260,680L260,820L400,820Z" fill="#998a96" stroke="#998a96" stroke-width="1.51"/><path d="M400,820L260,820L400,960Z" fill="#a0929d" stroke="#a0929d" stroke-width="1.51"/><path d="M260,820L260,960L400,960Z" fill="#a1939e" stroke="#a1939e" stroke-width="1.51"/><path d="M260,1240L400,1240L400,1100Z" fill="#b3a7b0" stroke="#b3a7b0" stroke-width="1.51"/><path d="M260,1100L260,1240L400,1100Z" fill="#aea2ac" stroke="#aea2ac" stroke-width="1.51"/><path d="M400,960L260,960L400,1100Z" fill="#a89ba5" stroke="#a89ba5" stroke-width="1.51"/><path d="M260,960L260,1100L400,1100Z" fill="#a99ca6" stroke="#a99ca6" stroke-width="1.51"/><path d="M400,400L260,400L400,540Z" fill="#887785" stroke="#887785" stroke-width="1.51"/><path d="M260,400L260,540L400,540Z" fill="#897886" stroke="#897886" stroke-width="1.51"/><path d="M260,680L400,680L400,540Z" fill="#938390" stroke="#938390" stroke-width="1.51"/><path d="M260,540L260,680L400,540Z" fill="#8f7e8b" stroke="#8f7e8b" stroke-width="1.51"/><path d="M260,-160L120,-160L260,-20Z" fill="#655061" stroke="#655061" stroke-width="1.51"/><path d="M120,-160L120,-20L260,-20Z" fill="#665162" stroke="#665162" stroke-width="1.51"/><path d="M260,-20L120,-20L260,120Z" fill="#6c5868" stroke="#6c5868" stroke-width="1.51"/><path d="M120,-20L120,120L260,120Z" fill="#6d5969" stroke="#6d5969" stroke-width="1.51"/><path d="M260,120L120,120L260,260Z" fill="#746070" stroke="#746070" stroke-width="1.51"/><path d="M120,120L120,260L260,260Z" fill="#756271" stroke="#756271" stroke-width="1.51"/><path d="M120,1100L260,1100L260,960Z" fill="#a598a3" stroke="#a598a3" stroke-width="1.51"/><path d="M120,960L120,1100L260,960Z" fill="#a1949e" stroke="#a1949e" stroke-width="1.51"/><path d="M260,540L120,540L260,680Z" fill="#8b7a87" stroke="#8b7a87" stroke-width="1.51"/><path d="M120,540L120,680L260,680Z" fill="#8c7c89" stroke="#8c7c89" stroke-width="1.51"/><path d="M120,960L260,960L260,820Z" fill="#9d8f9b" stroke="#9d8f9b" stroke-width="1.51"/><path d="M120,820L120,960L260,820Z" fill="#998a96" stroke="#998a96" stroke-width="1.51"/><path d="M260,680L120,680L260,820Z" fill="#938390" stroke="#938390" stroke-width="1.51"/><path d="M120,680L120,820L260,820Z" fill="#948591" stroke="#948591" stroke-width="1.51"/><path d="M260,1100L120,1100L260,1240Z" fill="#ab9ea8" stroke="#ab9ea8" stroke-width="1.51"/><path d="M120,1100L120,1240L260,1240Z" fill="#ac9fa9" stroke="#ac9fa9" stroke-width="1.51"/><path d="M260,260L120,260L260,400Z" fill="#7b6978" stroke="#7b6978" stroke-width="1.51"/><path d="M120,260L120,400L260,400Z" fill="#7d6a79" stroke="#7d6a79" stroke-width="1.51"/><path d="M120,540L260,540L260,400Z" fill="#867482" stroke="#867482" stroke-width="1.51"/><path d="M120,400L120,540L260,400Z" fill="#82707e" stroke="#82707e" stroke-width="1.51"/><path d="M120,-160L-20,-160L120,-20Z" fill="#604a5c" stroke="#604a5c" stroke-width="1.51"/><path d="M-20,-160L-20,-20L120,-20Z" fill="#614c5d" stroke="#614c5d" stroke-width="1.51"/><path d="M120,-20L-20,-20L120,120Z" fill="#675364" stroke="#675364" stroke-width="1.51"/><path d="M-20,-20L-20,120L120,120Z" fill="#685464" stroke="#685464" stroke-width="1.51"/><path d="M120,120L-20,120L120,260Z" fill="#6f5b6b" stroke="#6f5b6b" stroke-width="1.51"/><path d="M-20,120L-20,260L120,260Z" fill="#705c6c" stroke="#705c6c" stroke-width="1.51"/><path d="M120,260L-20,260L120,400Z" fill="#766473" stroke="#766473" stroke-width="1.51"/><path d="M-20,260L-20,400L120,400Z" fill="#786474" stroke="#786474" stroke-width="1.51"/><path d="M120,400L-20,400L120,540Z" fill="#7e6c7b" stroke="#7e6c7b" stroke-width="1.51"/><path d="M-20,400L-20,540L120,540Z" fill="#7f6d7b" stroke="#7f6d7b" stroke-width="1.51"/><path d="M120,540L-20,540L120,680Z" fill="#867483" stroke="#867483" stroke-width="1.51"/><path d="M-20,540L-20,680L120,680Z" fill="#877683" stroke="#877683" stroke-width="1.51"/><path d="M120,680L-20,680L120,820Z" fill="#8e7d8b" stroke="#8e7d8b" stroke-width="1.51"/><path d="M-20,680L-20,820L120,820Z" fill="#8f7f8c" stroke="#8f7f8c" stroke-width="1.51"/><path d="M120,820L-20,820L120,960Z" fill="#968693" stroke="#968693" stroke-width="1.51"/><path d="M-20,820L-20,960L120,960Z" fill="#968894" stroke="#968894" stroke-width="1.51"/><path d="M120,960L-20,960L120,1100Z" fill="#9d8f9b" stroke="#9d8f9b" stroke-width="1.51"/><path d="M-20,960L-20,1100L120,1100Z" fill="#9e909c" stroke="#9e909c" stroke-width="1.51"/><path d="M120,1100L-20,1100L120,1240Z" fill="#a598a3" stroke="#a598a3" stroke-width="1.51"/><path d="M-20,1100L-20,1240L120,1240Z" fill="#a699a3" stroke="#a699a3" stroke-width="1.51"/><path d="M-20,-160L-160,-160L-20,-20Z" fill="#5b4557" stroke="#5b4557" stroke-width="1.51"/><path d="M-160,-160L-160,-20L-20,-20Z" fill="#5c4758" stroke="#5c4758" stroke-width="1.51"/><path d="M-20,-20L-160,-20L-20,120Z" fill="#634e5f" stroke="#634e5f" stroke-width="1.51"/><path d="M-160,-20L-160,120L-20,120Z" fill="#644f60" stroke="#644f60" stroke-width="1.51"/><path d="M-20,120L-160,120L-20,260Z" fill="#6a5666" stroke="#6a5666" stroke-width="1.51"/><path d="M-160,120L-160,260L-20,260Z" fill="#6b5768" stroke="#6b5768" stroke-width="1.51"/><path d="M-20,260L-160,260L-20,400Z" fill="#725e6e" stroke="#725e6e" stroke-width="1.51"/><path d="M-160,260L-160,400L-20,400Z" fill="#735f6f" stroke="#735f6f" stroke-width="1.51"/><path d="M-20,680L-160,680L-20,820Z" fill="#897885" stroke="#897885" stroke-width="1.51"/><path d="M-160,680L-160,820L-20,820Z" fill="#8a7987" stroke="#8a7987" stroke-width="1.51"/><path d="M-160,1100L-20,1100L-20,960Z" fill="#9b8d98" stroke="#9b8d98" stroke-width="1.51"/><path d="M-160,960L-160,1100L-20,960Z" fill="#978894" stroke="#978894" stroke-width="1.51"/><path d="M-20,820L-160,820L-20,960Z" fill="#91808d" stroke="#91808d" stroke-width="1.51"/><path d="M-160,820L-160,960L-20,960Z" fill="#92828f" stroke="#92828f" stroke-width="1.51"/><path d="M-20,1100L-160,1100L-20,1240Z" fill="#a0939d" stroke="#a0939d" stroke-width="1.51"/><path d="M-160,1100L-160,1240L-20,1240Z" fill="#a2949e" stroke="#a2949e" stroke-width="1.51"/><path d="M-20,400L-160,400L-20,540Z" fill="#796776" stroke="#796776" stroke-width="1.51"/><path d="M-160,400L-160,540L-20,540Z" fill="#7a6877" stroke="#7a6877" stroke-width="1.51"/><path d="M-160,680L-20,680L-20,540Z" fill="#837280" stroke="#837280" stroke-width="1.51"/><path d="M-160,540L-160,680L-20,540Z" fill="#806d7c" stroke="#806d7c" stroke-width="1.51"/></svg>