<svg xmlns="http://www.w3.org/2000/svg" width="1920" height="1080"><path d="M265,1276L107,1295L506,1267Z" fill="#7386b2" stroke="#7386b2" stroke-width="1.51"/><path d="M-207,-220L89,-219L1041,-225Z" fill="#e0ebf7" stroke="#e0ebf7" stroke-width="1.51"/><path d="M316,-199L793,-188L1041,-225Z" fill="#c4deee" stroke="#c4deee" stroke-width="1.51"/><path d="M89,-219L316,-199L1041,-225Z" fill="#d5e6f3" stroke="#d5e6f3" stroke-width="1.51"/><path d="M506,1267L107,1295L1044,1286Z" fill="#637eac" stroke="#637eac" stroke-width="1.51"/><path d="M1362,1265L1237,1280L1520,1274Z" fill="#235d9b" stroke="#235d9b" stroke-width="1.51"/><path d="M1041,-225L1264,-219L1817,-220Z" fill="#9fbddf" stroke="#9fbddf" stroke-width="1.51"/><path d="M1237,1280L1044,1286L2024,1296Z" fill="#1f5997" stroke="#1f5997" stroke-width="1.51"/><path d="M1520,1274L1237,1280L2024,1296Z" fill="#155192" stroke="#155192" stroke-width="1.51"/><path d="M1877,1268L1729,1260L2024,1296Z" fill="#084387" stroke="#084387" stroke-width="1.51"/><path d="M1729,1260L1520,1274L2024,1296Z" fill="#0e498d" stroke="#0e498d" stroke-width="1.51"/><path d="M2093,1096L2024,1296L2126,1274Z" fill="#093c7d" stroke="#093c7d" stroke-width="1.51"/><path d="M2089,18L2091,161L2133,-59Z" fill="#7787b3" stroke="#7787b3" stroke-width="1.51"/><path d="M1817,-220L1938,-193L2141,-169Z" fill="#8b99c3" stroke="#8b99c3" stroke-width="1.51"/><path d="M1976,-76L2133,-59L2141,-169Z" fill="#818eb7" stroke="#818eb7" stroke-width="1.51"/><path d="M1951,857L2084,1012L2141,858Z" fill="#195799" stroke="#195799" stroke-width="1.51"/><path d="M2125,738L1998,736L2141,858Z" fill="#26609b" stroke="#26609b" stroke-width="1.51"/><path d="M2084,1012L2093,1096L2141,858Z" fill="#124e90" stroke="#124e90" stroke-width="1.51"/><path d="M2093,1096L2126,1274L2141,858Z" fill="#0d4689" stroke="#0d4689" stroke-width="1.51"/><path d="M2020,524L2105,615L2147,509Z" fill="#3f6fa5" stroke="#3f6fa5" stroke-width="1.51"/><path d="M2055,428L2020,524L2147,509Z" fill="#4974a8" stroke="#4974a8" stroke-width="1.51"/><path d="M2082,304L2055,428L2147,509Z" fill="#5378a8" stroke="#5378a8" stroke-width="1.51"/><path d="M2133,-59L2091,161L2147,509Z" fill="#6a80ad" stroke="#6a80ad" stroke-width="1.51"/><path d="M2091,161L2082,304L2147,509Z" fill="#5e7da9" stroke="#5e7da9" stroke-width="1.51"/><path d="M2105,615L2125,738L2147,509Z" fill="#37689e" stroke="#37689e" stroke-width="1.51"/><path d="M2141,-169L2133,-59L2147,509Z" fill="#7383ae" stroke="#7383ae" stroke-width="1.51"/><path d="M2125,738L2141,858L2147,509Z" fill="#2d629b" stroke="#2d629b" stroke-width="1.51"/><path d="M2089,18L1994,75L2091,161Z" fill="#7688b5" stroke="#7688b5" stroke-width="1.51"/><path d="M1956,1116L2024,1296L2093,1096Z" fill="#094489" stroke="#094489" stroke-width="1.51"/><path d="M2105,615L1998,736L2125,738Z" fill="#2f66a0" stroke="#2f66a0" stroke-width="1.51"/><path d="M1938,-193L1976,-76L2141,-169Z" fill="#8693be" stroke="#8693be" stroke-width="1.51"/><path d="M1998,736L1951,857L2141,858Z" fill="#23609f" stroke="#23609f" stroke-width="1.51"/><path d="M1979,650L1998,736L2105,615Z" fill="#336ba5" stroke="#336ba5" stroke-width="1.51"/><path d="M1976,-76L2089,18L2133,-59Z" fill="#7d8db7" stroke="#7d8db7" stroke-width="1.51"/><path d="M1951,857L2022,1035L2084,1012Z" fill="#145599" stroke="#145599" stroke-width="1.51"/><path d="M1978,293L2082,304L2091,161Z" fill="#6783b2" stroke="#6783b2" stroke-width="1.51"/><path d="M1960,156L1978,293L2091,161Z" fill="#6d87b6" stroke="#6d87b6" stroke-width="1.51"/><path d="M2084,1012L2022,1035L2093,1096Z" fill="#0f4c90" stroke="#0f4c90" stroke-width="1.51"/><path d="M2020,524L1979,650L2105,615Z" fill="#3b6fa7" stroke="#3b6fa7" stroke-width="1.51"/><path d="M1264,-219L1519,-146L1817,-220Z" fill="#98b3da" stroke="#98b3da" stroke-width="1.51"/><path d="M1979,417L2055,428L2082,304Z" fill="#597dae" stroke="#597dae" stroke-width="1.51"/><path d="M1978,293L1979,417L2082,304Z" fill="#5f82b2" stroke="#5f82b2" stroke-width="1.51"/><path d="M1994,75L1960,156L2091,161Z" fill="#748ab8" stroke="#748ab8" stroke-width="1.51"/><path d="M2022,1035L1956,1116L2093,1096Z" fill="#0d4b91" stroke="#0d4b91" stroke-width="1.51"/><path d="M1976,-76L1994,75L2089,18Z" fill="#7c8ebb" stroke="#7c8ebb" stroke-width="1.51"/><path d="M1951,857L1899,900L2022,1035Z" fill="#175ba0" stroke="#175ba0" stroke-width="1.51"/><path d="M1956,1116L1877,1268L2024,1296Z" fill="#094387" stroke="#094387" stroke-width="1.51"/><path d="M1979,417L2020,524L2055,428Z" fill="#4f7aae" stroke="#4f7aae" stroke-width="1.51"/><path d="M1519,-146L1732,-177L1817,-220Z" fill="#92a9d4" stroke="#92a9d4" stroke-width="1.51"/><path d="M1886,1130L1877,1268L1956,1116Z" fill="#094a92" stroke="#094a92" stroke-width="1.51"/><path d="M1976,-76L1895,34L1994,75Z" fill="#7e91c0" stroke="#7e91c0" stroke-width="1.51"/><path d="M1905,820L1951,857L1998,736Z" fill="#2566a6" stroke="#2566a6" stroke-width="1.51"/><path d="M1888,508L1979,650L2020,524Z" fill="#4176af" stroke="#4176af" stroke-width="1.51"/><path d="M1979,417L1888,508L2020,524Z" fill="#4c7bb2" stroke="#4c7bb2" stroke-width="1.51"/><path d="M1899,900L1818,1040L2022,1035Z" fill="#1359a0" stroke="#1359a0" stroke-width="1.51"/><path d="M1818,1040L1956,1116L2022,1035Z" fill="#0e529a" stroke="#0e529a" stroke-width="1.51"/><path d="M1978,293L1842,314L1979,417Z" fill="#6186b8" stroke="#6186b8" stroke-width="1.51"/><path d="M1979,650L1833,699L1998,736Z" fill="#316fac" stroke="#316fac" stroke-width="1.51"/><path d="M1833,699L1905,820L1998,736Z" fill="#2a6cac" stroke="#2a6cac" stroke-width="1.51"/><path d="M1895,34L1868,133L1960,156Z" fill="#7991c2" stroke="#7991c2" stroke-width="1.51"/><path d="M1960,156L1842,314L1978,293Z" fill="#6b8abc" stroke="#6b8abc" stroke-width="1.51"/><path d="M1895,34L1960,156L1994,75Z" fill="#798fbf" stroke="#798fbf" stroke-width="1.51"/><path d="M1818,1040L1886,1130L1956,1116Z" fill="#0b529c" stroke="#0b529c" stroke-width="1.51"/><path d="M1868,133L1842,314L1960,156Z" fill="#728fc1" stroke="#728fc1" stroke-width="1.51"/><path d="M1938,-193L1825,-70L1976,-76Z" fill="#8799c6" stroke="#8799c6" stroke-width="1.51"/><path d="M1825,-70L1895,34L1976,-76Z" fill="#8397c6" stroke="#8397c6" stroke-width="1.51"/><path d="M1856,446L1888,508L1979,417Z" fill="#5181b7" stroke="#5181b7" stroke-width="1.51"/><path d="M1842,314L1856,446L1979,417Z" fill="#5b85ba" stroke="#5b85ba" stroke-width="1.51"/><path d="M1888,508L1833,699L1979,650Z" fill="#3b76b2" stroke="#3b76b2" stroke-width="1.51"/><path d="M1817,-220L1825,-70L1938,-193Z" fill="#8c9ecc" stroke="#8c9ecc" stroke-width="1.51"/><path d="M1905,820L1899,900L1951,857Z" fill="#1f63a6" stroke="#1f63a6" stroke-width="1.51"/><path d="M1781,679L1833,699L1888,508Z" fill="#3b79b6" stroke="#3b79b6" stroke-width="1.51"/><path d="M1727,174L1727,264L1842,314Z" fill="#6f94c6" stroke="#6f94c6" stroke-width="1.51"/><path d="M1727,174L1842,314L1868,133Z" fill="#7393c5" stroke="#7393c5" stroke-width="1.51"/><path d="M1724,1141L1729,1260L1877,1268Z" fill="#0d4d93" stroke="#0d4d93" stroke-width="1.51"/><path d="M1724,1141L1877,1268L1886,1130Z" fill="#0b4d96" stroke="#0b4d96" stroke-width="1.51"/><path d="M1698,535L1781,679L1888,508Z" fill="#427fba" stroke="#427fba" stroke-width="1.51"/><path d="M1767,989L1818,1040L1899,900Z" fill="#165ea7" stroke="#165ea7" stroke-width="1.51"/><path d="M1833,699L1703,771L1905,820Z" fill="#2b71b2" stroke="#2b71b2" stroke-width="1.51"/><path d="M1703,771L1737,896L1905,820Z" fill="#256db0" stroke="#256db0" stroke-width="1.51"/><path d="M1737,896L1899,900L1905,820Z" fill="#1f66ab" stroke="#1f66ab" stroke-width="1.51"/><path d="M1758,105L1868,133L1895,34Z" fill="#7c96c7" stroke="#7c96c7" stroke-width="1.51"/><path d="M1737,896L1767,989L1899,900Z" fill="#1964ab" stroke="#1964ab" stroke-width="1.51"/><path d="M1825,-70L1758,105L1895,34Z" fill="#8199c9" stroke="#8199c9" stroke-width="1.51"/><path d="M1856,446L1698,535L1888,508Z" fill="#4d83bc" stroke="#4d83bc" stroke-width="1.51"/><path d="M1818,1040L1724,1141L1886,1130Z" fill="#0d55a0" stroke="#0d55a0" stroke-width="1.51"/><path d="M1817,-220L1732,-177L1825,-70Z" fill="#8ea2cf" stroke="#8ea2cf" stroke-width="1.51"/><path d="M1763,-74L1758,105L1825,-70Z" fill="#849dcc" stroke="#849dcc" stroke-width="1.51"/><path d="M1842,314L1711,415L1856,446Z" fill="#5d8bbf" stroke="#5d8bbf" stroke-width="1.51"/><path d="M1732,-177L1763,-74L1825,-70Z" fill="#8ba1ce" stroke="#8ba1ce" stroke-width="1.51"/><path d="M1758,105L1727,174L1868,133Z" fill="#7b97c9" stroke="#7b97c9" stroke-width="1.51"/><path d="M1781,679L1703,771L1833,699Z" fill="#3177b5" stroke="#3177b5" stroke-width="1.51"/><path d="M1711,415L1698,535L1856,446Z" fill="#5489bf" stroke="#5489bf" stroke-width="1.51"/><path d="M1727,264L1711,415L1842,314Z" fill="#6691c3" stroke="#6691c3" stroke-width="1.51"/><path d="M1654,31L1758,105L1763,-74Z" fill="#849fcd" stroke="#849fcd" stroke-width="1.51"/><path d="M1519,-146L1620,-134L1732,-177Z" fill="#92acd6" stroke="#92acd6" stroke-width="1.51"/><path d="M316,-199L577,-170L793,-188Z" fill="#cee3f1" stroke="#cee3f1" stroke-width="1.51"/><path d="M1698,535L1656,584L1781,679Z" fill="#4182bc" stroke="#4182bc" stroke-width="1.51"/><path d="M1767,989L1724,1141L1818,1040Z" fill="#135ba4" stroke="#135ba4" stroke-width="1.51"/><path d="M1653,295L1711,415L1727,264Z" fill="#6895c6" stroke="#6895c6" stroke-width="1.51"/><path d="M1618,1033L1724,1141L1767,989Z" fill="#165fa7" stroke="#165fa7" stroke-width="1.51"/><path d="M1656,584L1703,771L1781,679Z" fill="#387cb9" stroke="#387cb9" stroke-width="1.51"/><path d="M1620,-134L1635,-61L1732,-177Z" fill="#8fa8d3" stroke="#8fa8d3" stroke-width="1.51"/><path d="M1732,-177L1635,-61L1763,-74Z" fill="#8da5d0" stroke="#8da5d0" stroke-width="1.51"/><path d="M1635,-61L1654,31L1763,-74Z" fill="#89a4d1" stroke="#89a4d1" stroke-width="1.51"/><path d="M1737,896L1618,1033L1767,989Z" fill="#1a65ac" stroke="#1a65ac" stroke-width="1.51"/><path d="M1656,584L1573,651L1703,771Z" fill="#3a81bc" stroke="#3a81bc" stroke-width="1.51"/><path d="M1618,1218L1520,1274L1729,1260Z" fill="#145296" stroke="#145296" stroke-width="1.51"/><path d="M1724,1141L1618,1218L1729,1260Z" fill="#115398" stroke="#115398" stroke-width="1.51"/><path d="M1654,31L1727,174L1758,105Z" fill="#7f9dcc" stroke="#7f9dcc" stroke-width="1.51"/><path d="M1573,651L1600,760L1703,771Z" fill="#337ebb" stroke="#337ebb" stroke-width="1.51"/><path d="M1617,423L1698,535L1711,415Z" fill="#568ec3" stroke="#568ec3" stroke-width="1.51"/><path d="M1654,31L1626,180L1727,174Z" fill="#7e9fce" stroke="#7e9fce" stroke-width="1.51"/><path d="M1727,174L1626,180L1727,264Z" fill="#769acb" stroke="#769acb" stroke-width="1.51"/><path d="M1703,771L1591,865L1737,896Z" fill="#2771b4" stroke="#2771b4" stroke-width="1.51"/><path d="M1591,865L1618,1033L1737,896Z" fill="#1e6cb1" stroke="#1e6cb1" stroke-width="1.51"/><path d="M1618,1033L1573,1095L1724,1141Z" fill="#165fa7" stroke="#165fa7" stroke-width="1.51"/><path d="M1626,180L1653,295L1727,264Z" fill="#729aca" stroke="#729aca" stroke-width="1.51"/><path d="M1653,295L1617,423L1711,415Z" fill="#6394c6" stroke="#6394c6" stroke-width="1.51"/><path d="M1573,1095L1618,1218L1724,1141Z" fill="#145aa1" stroke="#145aa1" stroke-width="1.51"/><path d="M1600,760L1591,865L1703,771Z" fill="#2d78b7" stroke="#2d78b7" stroke-width="1.51"/><path d="M1264,-219L1387,-145L1519,-146Z" fill="#9bbbde" stroke="#9bbbde" stroke-width="1.51"/><path d="M1617,423L1656,584L1698,535Z" fill="#4e8bc2" stroke="#4e8bc2" stroke-width="1.51"/><path d="M668,1239L506,1267L1044,1286Z" fill="#567aab" stroke="#567aab" stroke-width="1.51"/><path d="M1573,1095L1527,1151L1618,1218Z" fill="#165ea4" stroke="#165ea4" stroke-width="1.51"/><path d="M1591,865L1481,922L1618,1033Z" fill="#2170b5" stroke="#2170b5" stroke-width="1.51"/><path d="M1626,180L1547,252L1653,295Z" fill="#749ecd" stroke="#749ecd" stroke-width="1.51"/><path d="M1547,252L1617,423L1653,295Z" fill="#6b9aca" stroke="#6b9aca" stroke-width="1.51"/><path d="M1635,-61L1501,49L1654,31Z" fill="#88a8d4" stroke="#88a8d4" stroke-width="1.51"/><path d="M1501,49L1626,180L1654,31Z" fill="#83a4d2" stroke="#83a4d2" stroke-width="1.51"/><path d="M1617,423L1467,521L1656,584Z" fill="#5090c6" stroke="#5090c6" stroke-width="1.51"/><path d="M1467,521L1573,651L1656,584Z" fill="#468bc4" stroke="#468bc4" stroke-width="1.51"/><path d="M1493,427L1467,521L1617,423Z" fill="#5a97c9" stroke="#5a97c9" stroke-width="1.51"/><path d="M1547,252L1493,427L1617,423Z" fill="#679bcb" stroke="#679bcb" stroke-width="1.51"/><path d="M1481,922L1471,1018L1618,1033Z" fill="#216eb2" stroke="#216eb2" stroke-width="1.51"/><path d="M1501,49L1455,164L1626,180Z" fill="#82a7d4" stroke="#82a7d4" stroke-width="1.51"/><path d="M1620,-134L1519,-146L1635,-61Z" fill="#90add6" stroke="#90add6" stroke-width="1.51"/><path d="M1519,-146L1476,-43L1635,-61Z" fill="#90aed8" stroke="#90aed8" stroke-width="1.51"/><path d="M1476,-43L1501,49L1635,-61Z" fill="#8bacd6" stroke="#8bacd6" stroke-width="1.51"/><path d="M1455,164L1547,252L1626,180Z" fill="#7ba3d1" stroke="#7ba3d1" stroke-width="1.51"/><path d="M1527,1151L1520,1274L1618,1218Z" fill="#175a9d" stroke="#175a9d" stroke-width="1.51"/><path d="M1471,1018L1573,1095L1618,1033Z" fill="#1c67ad" stroke="#1c67ad" stroke-width="1.51"/><path d="M1418,321L1493,427L1547,252Z" fill="#6da1ce" stroke="#6da1ce" stroke-width="1.51"/><path d="M1573,651L1476,706L1600,760Z" fill="#3884bf" stroke="#3884bf" stroke-width="1.51"/><path d="M1476,706L1468,771L1600,760Z" fill="#3583bf" stroke="#3583bf" stroke-width="1.51"/><path d="M1468,771L1591,865L1600,760Z" fill="#2f7cbb" stroke="#2f7cbb" stroke-width="1.51"/><path d="M1468,771L1481,922L1591,865Z" fill="#2c7aba" stroke="#2c7aba" stroke-width="1.51"/><path d="M1467,521L1476,706L1573,651Z" fill="#448cc4" stroke="#448cc4" stroke-width="1.51"/><path d="M1471,1018L1527,1151L1573,1095Z" fill="#1c66ac" stroke="#1c66ac" stroke-width="1.51"/><path d="M1467,521L1392,570L1476,706Z" fill="#4a91c7" stroke="#4a91c7" stroke-width="1.51"/><path d="M1392,570L1382,640L1476,706Z" fill="#4790c6" stroke="#4790c6" stroke-width="1.51"/><path d="M1471,1018L1405,1124L1527,1151Z" fill="#2068ac" stroke="#2068ac" stroke-width="1.51"/><path d="M1455,164L1418,321L1547,252Z" fill="#78a5d1" stroke="#78a5d1" stroke-width="1.51"/><path d="M1418,321L1418,402L1493,427Z" fill="#69a0ce" stroke="#69a0ce" stroke-width="1.51"/><path d="M1426,152L1455,164L1501,49Z" fill="#85abd6" stroke="#85abd6" stroke-width="1.51"/><path d="M1405,1124L1362,1265L1520,1274Z" fill="#205f9f" stroke="#205f9f" stroke-width="1.51"/><path d="M1405,1124L1520,1274L1527,1151Z" fill="#1d5fa3" stroke="#1d5fa3" stroke-width="1.51"/><path d="M1468,771L1377,805L1481,922Z" fill="#327fbd" stroke="#327fbd" stroke-width="1.51"/><path d="M1387,-145L1476,-43L1519,-146Z" fill="#95b4db" stroke="#95b4db" stroke-width="1.51"/><path d="M1418,402L1467,521L1493,427Z" fill="#5e9bcb" stroke="#5e9bcb" stroke-width="1.51"/><path d="M1476,-43L1369,16L1501,49Z" fill="#8db0d8" stroke="#8db0d8" stroke-width="1.51"/><path d="M1369,16L1426,152L1501,49Z" fill="#89afd7" stroke="#89afd7" stroke-width="1.51"/><path d="M1426,152L1418,321L1455,164Z" fill="#7da9d4" stroke="#7da9d4" stroke-width="1.51"/><path d="M1377,805L1357,933L1481,922Z" fill="#2f7dbc" stroke="#2f7dbc" stroke-width="1.51"/><path d="M1365,1004L1471,1018L1481,922Z" fill="#2773b5" stroke="#2773b5" stroke-width="1.51"/><path d="M1357,933L1365,1004L1481,922Z" fill="#2a77b8" stroke="#2a77b8" stroke-width="1.51"/><path d="M1365,1004L1405,1124L1471,1018Z" fill="#266fb1" stroke="#266fb1" stroke-width="1.51"/><path d="M1387,-145L1343,-66L1476,-43Z" fill="#95b6dc" stroke="#95b6dc" stroke-width="1.51"/><path d="M1377,805L1468,771L1476,706Z" fill="#3786c0" stroke="#3786c0" stroke-width="1.51"/><path d="M1382,640L1377,805L1476,706Z" fill="#3d8bc2" stroke="#3d8bc2" stroke-width="1.51"/><path d="M1343,-66L1369,16L1476,-43Z" fill="#91b5da" stroke="#91b5da" stroke-width="1.51"/><path d="M821,1233L668,1239L1044,1286Z" fill="#4d77aa" stroke="#4d77aa" stroke-width="1.51"/><path d="M1418,402L1392,570L1467,521Z" fill="#589acb" stroke="#589acb" stroke-width="1.51"/><path d="M1302,312L1418,321L1426,152Z" fill="#79aad3" stroke="#79aad3" stroke-width="1.51"/><path d="M1259,706L1377,805L1382,640Z" fill="#418fc5" stroke="#418fc5" stroke-width="1.51"/><path d="M1247,507L1392,570L1418,402Z" fill="#5b9ecd" stroke="#5b9ecd" stroke-width="1.51"/><path d="M1263,415L1247,507L1418,402Z" fill="#65a4d0" stroke="#65a4d0" stroke-width="1.51"/><path d="M1302,312L1418,402L1418,321Z" fill="#70a7d0" stroke="#70a7d0" stroke-width="1.51"/><path d="M1213,160L1302,312L1426,152Z" fill="#82b0d7" stroke="#82b0d7" stroke-width="1.51"/><path d="M1369,16L1223,61L1426,152Z" fill="#8cb4da" stroke="#8cb4da" stroke-width="1.51"/><path d="M1223,61L1213,160L1426,152Z" fill="#8bb5da" stroke="#8bb5da" stroke-width="1.51"/><path d="M1259,1135L1362,1265L1405,1124Z" fill="#2768a8" stroke="#2768a8" stroke-width="1.51"/><path d="M1302,312L1263,415L1418,402Z" fill="#6da7d1" stroke="#6da7d1" stroke-width="1.51"/><path d="M1272,826L1357,933L1377,805Z" fill="#3684bf" stroke="#3684bf" stroke-width="1.51"/><path d="M1365,1004L1259,1135L1405,1124Z" fill="#2970b1" stroke="#2970b1" stroke-width="1.51"/><path d="M1288,986L1259,1135L1365,1004Z" fill="#2d75b5" stroke="#2d75b5" stroke-width="1.51"/><path d="M1247,507L1382,640L1392,570Z" fill="#5199ca" stroke="#5199ca" stroke-width="1.51"/><path d="M1259,706L1272,826L1377,805Z" fill="#3d8bc3" stroke="#3d8bc3" stroke-width="1.51"/><path d="M1247,507L1259,706L1382,640Z" fill="#4e98ca" stroke="#4e98ca" stroke-width="1.51"/><path d="M1281,-81L1343,-66L1387,-145Z" fill="#98bbde" stroke="#98bbde" stroke-width="1.51"/><path d="M1264,-219L1281,-81L1387,-145Z" fill="#9cbedf" stroke="#9cbedf" stroke-width="1.51"/><path d="M1259,1135L1237,1280L1362,1265Z" fill="#2966a3" stroke="#2966a3" stroke-width="1.51"/><path d="M1357,933L1288,986L1365,1004Z" fill="#2e79b8" stroke="#2e79b8" stroke-width="1.51"/><path d="M1272,826L1256,935L1357,933Z" fill="#3482be" stroke="#3482be" stroke-width="1.51"/><path d="M1343,-66L1281,-81L1369,16Z" fill="#95b9dd" stroke="#95b9dd" stroke-width="1.51"/><path d="M1281,-81L1223,61L1369,16Z" fill="#93badd" stroke="#93badd" stroke-width="1.51"/><path d="M1127,1261L1044,1286L1237,1280Z" fill="#3368a1" stroke="#3368a1" stroke-width="1.51"/><path d="M1256,935L1288,986L1357,933Z" fill="#307dbb" stroke="#307dbb" stroke-width="1.51"/><path d="M1247,507L1151,655L1259,706Z" fill="#529ccb" stroke="#529ccb" stroke-width="1.51"/><path d="M1155,1178L1237,1280L1259,1135Z" fill="#2f6ca8" stroke="#2f6ca8" stroke-width="1.51"/><path d="M1174,21L1223,61L1281,-81Z" fill="#96bddf" stroke="#96bddf" stroke-width="1.51"/><path d="M1264,-219L1109,-142L1281,-81Z" fill="#a0c3e2" stroke="#a0c3e2" stroke-width="1.51"/><path d="M1093,1010L1259,1135L1288,986Z" fill="#3379b7" stroke="#3379b7" stroke-width="1.51"/><path d="M1213,160L1176,166L1302,312Z" fill="#85b5d9" stroke="#85b5d9" stroke-width="1.51"/><path d="M1176,166L1097,329L1302,312Z" fill="#81b4d8" stroke="#81b4d8" stroke-width="1.51"/><path d="M1097,329L1263,415L1302,312Z" fill="#75afd5" stroke="#75afd5" stroke-width="1.51"/><path d="M1165,890L1256,935L1272,826Z" fill="#3a87c1" stroke="#3a87c1" stroke-width="1.51"/><path d="M1259,706L1147,790L1272,826Z" fill="#4290c6" stroke="#4290c6" stroke-width="1.51"/><path d="M1256,935L1093,1010L1288,986Z" fill="#367fbc" stroke="#367fbc" stroke-width="1.51"/><path d="M1125,-19L1174,21L1281,-81Z" fill="#9ac0e0" stroke="#9ac0e0" stroke-width="1.51"/><path d="M1109,-142L1125,-19L1281,-81Z" fill="#9fc3e2" stroke="#9fc3e2" stroke-width="1.51"/><path d="M1093,1010L1155,1178L1259,1135Z" fill="#3576b4" stroke="#3576b4" stroke-width="1.51"/><path d="M1097,329L1112,427L1263,415Z" fill="#74afd5" stroke="#74afd5" stroke-width="1.51"/><path d="M1147,790L1165,890L1272,826Z" fill="#408cc3" stroke="#408cc3" stroke-width="1.51"/><path d="M1110,505L1151,655L1247,507Z" fill="#5ca3d0" stroke="#5ca3d0" stroke-width="1.51"/><path d="M1165,890L1093,1010L1256,935Z" fill="#3b84bf" stroke="#3b84bf" stroke-width="1.51"/><path d="M1112,427L1247,507L1263,415Z" fill="#69a9d2" stroke="#69a9d2" stroke-width="1.51"/><path d="M1041,-225L1109,-142L1264,-219Z" fill="#a8c9e5" stroke="#a8c9e5" stroke-width="1.51"/><path d="M1151,655L1147,790L1259,706Z" fill="#4a97c8" stroke="#4a97c8" stroke-width="1.51"/><path d="M1112,427L1110,505L1247,507Z" fill="#68a9d3" stroke="#68a9d3" stroke-width="1.51"/><path d="M1155,1178L1127,1261L1237,1280Z" fill="#326aa4" stroke="#326aa4" stroke-width="1.51"/><path d="M1176,166L1213,160L1223,61Z" fill="#8fb9dd" stroke="#8fb9dd" stroke-width="1.51"/><path d="M1174,21L1176,166L1223,61Z" fill="#92bbde" stroke="#92bbde" stroke-width="1.51"/><path d="M793,-188L875,-180L1041,-225Z" fill="#b6d5eb" stroke="#b6d5eb" stroke-width="1.51"/><path d="M928,1237L821,1233L1044,1286Z" fill="#4473a9" stroke="#4473a9" stroke-width="1.51"/><path d="M1067,771L1147,790L1151,655Z" fill="#4c98ca" stroke="#4c98ca" stroke-width="1.51"/><path d="M1093,1010L1043,1043L1155,1178Z" fill="#3c7cb8" stroke="#3c7cb8" stroke-width="1.51"/><path d="M1036,910L1093,1010L1165,890Z" fill="#4188c2" stroke="#4188c2" stroke-width="1.51"/><path d="M1125,-19L998,21L1174,21Z" fill="#9dc3e2" stroke="#9dc3e2" stroke-width="1.51"/><path d="M989,278L1097,329L1176,166Z" fill="#88badb" stroke="#88badb" stroke-width="1.51"/><path d="M973,156L989,278L1176,166Z" fill="#91bede" stroke="#91bede" stroke-width="1.51"/><path d="M1174,21L998,21L1176,166Z" fill="#98c0e0" stroke="#98c0e0" stroke-width="1.51"/><path d="M998,21L973,156L1176,166Z" fill="#98c2e1" stroke="#98c2e1" stroke-width="1.51"/><path d="M1147,790L1036,910L1165,890Z" fill="#448dc5" stroke="#448dc5" stroke-width="1.51"/><path d="M1067,771L1036,910L1147,790Z" fill="#4992c7" stroke="#4992c7" stroke-width="1.51"/><path d="M1110,505L992,537L1151,655Z" fill="#61a6d1" stroke="#61a6d1" stroke-width="1.51"/><path d="M1043,1043L982,1146L1155,1178Z" fill="#3d7ab6" stroke="#3d7ab6" stroke-width="1.51"/><path d="M992,537L978,701L1151,655Z" fill="#5da3d0" stroke="#5da3d0" stroke-width="1.51"/><path d="M982,1146L1127,1261L1155,1178Z" fill="#3a72ac" stroke="#3a72ac" stroke-width="1.51"/><path d="M1109,-142L1011,-84L1125,-19Z" fill="#a4c8e5" stroke="#a4c8e5" stroke-width="1.51"/><path d="M982,1146L1044,1286L1127,1261Z" fill="#3c70a8" stroke="#3c70a8" stroke-width="1.51"/><path d="M978,701L1067,771L1151,655Z" fill="#539dcc" stroke="#539dcc" stroke-width="1.51"/><path d="M1097,329L1006,409L1112,427Z" fill="#79b3d8" stroke="#79b3d8" stroke-width="1.51"/><path d="M1011,-84L998,21L1125,-19Z" fill="#a2c7e4" stroke="#a2c7e4" stroke-width="1.51"/><path d="M1006,409L992,537L1110,505Z" fill="#6eaed6" stroke="#6eaed6" stroke-width="1.51"/><path d="M1006,409L1110,505L1112,427Z" fill="#71afd6" stroke="#71afd6" stroke-width="1.51"/><path d="M1041,-225L1011,-84L1109,-142Z" fill="#aacce6" stroke="#aacce6" stroke-width="1.51"/><path d="M1036,910L1043,1043L1093,1010Z" fill="#4385bf" stroke="#4385bf" stroke-width="1.51"/><path d="M989,278L1006,409L1097,329Z" fill="#82b9da" stroke="#82b9da" stroke-width="1.51"/><path d="M923,652L978,701L992,537Z" fill="#62a7d3" stroke="#62a7d3" stroke-width="1.51"/><path d="M1036,910L909,1043L1043,1043Z" fill="#4788c0" stroke="#4788c0" stroke-width="1.51"/><path d="M982,1146L928,1237L1044,1286Z" fill="#4074ab" stroke="#4074ab" stroke-width="1.51"/><path d="M906,813L1036,910L1067,771Z" fill="#4f96c9" stroke="#4f96c9" stroke-width="1.51"/><path d="M978,701L906,813L1067,771Z" fill="#549ccd" stroke="#549ccd" stroke-width="1.51"/><path d="M887,881L909,1043L1036,910Z" fill="#4d8ec5" stroke="#4d8ec5" stroke-width="1.51"/><path d="M906,813L887,881L1036,910Z" fill="#5195c9" stroke="#5195c9" stroke-width="1.51"/><path d="M875,-180L1011,-84L1041,-225Z" fill="#aed0e9" stroke="#aed0e9" stroke-width="1.51"/><path d="M909,1043L982,1146L1043,1043Z" fill="#4581bb" stroke="#4581bb" stroke-width="1.51"/><path d="M989,278L900,346L1006,409Z" fill="#85bcdc" stroke="#85bcdc" stroke-width="1.51"/><path d="M973,156L903,177L989,278Z" fill="#95c2e1" stroke="#95c2e1" stroke-width="1.51"/><path d="M856,397L903,561L992,537Z" fill="#75b3d8" stroke="#75b3d8" stroke-width="1.51"/><path d="M903,561L923,652L992,537Z" fill="#69acd4" stroke="#69acd4" stroke-width="1.51"/><path d="M918,26L973,156L998,21Z" fill="#a0c8e4" stroke="#a0c8e4" stroke-width="1.51"/><path d="M856,397L992,537L1006,409Z" fill="#79b5d9" stroke="#79b5d9" stroke-width="1.51"/><path d="M918,26L998,21L1011,-84Z" fill="#a5cae6" stroke="#a5cae6" stroke-width="1.51"/><path d="M865,-89L918,26L1011,-84Z" fill="#aacee7" stroke="#aacee7" stroke-width="1.51"/><path d="M875,-180L865,-89L1011,-84Z" fill="#b0d1e9" stroke="#b0d1e9" stroke-width="1.51"/><path d="M900,346L856,397L1006,409Z" fill="#83bbdb" stroke="#83bbdb" stroke-width="1.51"/><path d="M918,26L903,177L973,156Z" fill="#9fc7e4" stroke="#9fc7e4" stroke-width="1.51"/><path d="M909,1043L862,1116L982,1146Z" fill="#4a82bb" stroke="#4a82bb" stroke-width="1.51"/><path d="M903,177L900,346L989,278Z" fill="#90c1df" stroke="#90c1df" stroke-width="1.51"/><path d="M923,652L906,813L978,701Z" fill="#5ca2cf" stroke="#5ca2cf" stroke-width="1.51"/><path d="M862,1116L928,1237L982,1146Z" fill="#487bb4" stroke="#487bb4" stroke-width="1.51"/><path d="M745,64L746,137L903,177Z" fill="#a9cde6" stroke="#a9cde6" stroke-width="1.51"/><path d="M762,318L900,346L903,177Z" fill="#96c4e0" stroke="#96c4e0" stroke-width="1.51"/><path d="M856,397L768,522L903,561Z" fill="#7cb7da" stroke="#7cb7da" stroke-width="1.51"/><path d="M887,881L823,913L909,1043Z" fill="#5591c6" stroke="#5591c6" stroke-width="1.51"/><path d="M823,913L819,1014L909,1043Z" fill="#558ec4" stroke="#558ec4" stroke-width="1.51"/><path d="M745,64L903,177L918,26Z" fill="#a7cce6" stroke="#a7cce6" stroke-width="1.51"/><path d="M865,-89L803,-44L918,26Z" fill="#afd0e9" stroke="#afd0e9" stroke-width="1.51"/><path d="M903,561L780,633L923,652Z" fill="#6dacd5" stroke="#6dacd5" stroke-width="1.51"/><path d="M774,743L906,813L923,652Z" fill="#61a4d0" stroke="#61a4d0" stroke-width="1.51"/><path d="M780,633L774,743L923,652Z" fill="#6baad3" stroke="#6baad3" stroke-width="1.51"/><path d="M862,1116L824,1174L928,1237Z" fill="#4d7db4" stroke="#4d7db4" stroke-width="1.51"/><path d="M824,1174L821,1233L928,1237Z" fill="#4c7aaf" stroke="#4c7aaf" stroke-width="1.51"/><path d="M803,-44L745,64L918,26Z" fill="#afd0e8" stroke="#afd0e8" stroke-width="1.51"/><path d="M746,137L762,318L903,177Z" fill="#a1c9e4" stroke="#a1c9e4" stroke-width="1.51"/><path d="M819,1014L862,1116L909,1043Z" fill="#5188bf" stroke="#5188bf" stroke-width="1.51"/><path d="M823,913L887,881L906,813Z" fill="#5998ca" stroke="#5998ca" stroke-width="1.51"/><path d="M774,743L823,913L906,813Z" fill="#5f9ecd" stroke="#5f9ecd" stroke-width="1.51"/><path d="M768,522L780,633L903,561Z" fill="#75b2d7" stroke="#75b2d7" stroke-width="1.51"/><path d="M762,318L856,397L900,346Z" fill="#8fc1de" stroke="#8fc1de" stroke-width="1.51"/><path d="M744,439L768,522L856,397Z" fill="#86bcdc" stroke="#86bcdc" stroke-width="1.51"/><path d="M793,-188L865,-89L875,-180Z" fill="#b8d6eb" stroke="#b8d6eb" stroke-width="1.51"/><path d="M793,-188L803,-44L865,-89Z" fill="#b6d5ea" stroke="#b6d5ea" stroke-width="1.51"/><path d="M819,1014L824,1174L862,1116Z" fill="#5386bd" stroke="#5386bd" stroke-width="1.51"/><path d="M762,318L744,439L856,397Z" fill="#8fc1de" stroke="#8fc1de" stroke-width="1.51"/><path d="M746,137L697,164L762,318Z" fill="#a7cce4" stroke="#a7cce4" stroke-width="1.51"/><path d="M793,-188L616,-138L803,-44Z" fill="#bedaec" stroke="#bedaec" stroke-width="1.51"/><path d="M638,1065L635,1100L819,1014Z" fill="#618fc2" stroke="#618fc2" stroke-width="1.51"/><path d="M650,852L638,1065L819,1014Z" fill="#6496c7" stroke="#6496c7" stroke-width="1.51"/><path d="M650,852L819,1014L823,913Z" fill="#6098c9" stroke="#6098c9" stroke-width="1.51"/><path d="M774,743L650,852L823,913Z" fill="#67a1ce" stroke="#67a1ce" stroke-width="1.51"/><path d="M819,1014L635,1100L824,1174Z" fill="#5a89be" stroke="#5a89be" stroke-width="1.51"/><path d="M668,1239L821,1233L824,1174Z" fill="#557db0" stroke="#557db0" stroke-width="1.51"/><path d="M635,1100L668,1239L824,1174Z" fill="#5c84b7" stroke="#5c84b7" stroke-width="1.51"/><path d="M704,405L744,439L762,318Z" fill="#93c3de" stroke="#93c3de" stroke-width="1.51"/><path d="M768,522L686,622L780,633Z" fill="#7ab4d8" stroke="#7ab4d8" stroke-width="1.51"/><path d="M577,-170L616,-138L793,-188Z" fill="#c6dfee" stroke="#c6dfee" stroke-width="1.51"/><path d="M616,-25L745,64L803,-44Z" fill="#b7d5ea" stroke="#b7d5ea" stroke-width="1.51"/><path d="M616,-138L616,-25L803,-44Z" fill="#bfdaec" stroke="#bfdaec" stroke-width="1.51"/><path d="M686,622L774,743L780,633Z" fill="#73afd5" stroke="#73afd5" stroke-width="1.51"/><path d="M697,164L622,298L762,318Z" fill="#a5cce3" stroke="#a5cce3" stroke-width="1.51"/><path d="M620,781L650,852L774,743Z" fill="#70a7d1" stroke="#70a7d1" stroke-width="1.51"/><path d="M686,622L620,781L774,743Z" fill="#73aed4" stroke="#73aed4" stroke-width="1.51"/><path d="M744,439L624,525L768,522Z" fill="#87bcdc" stroke="#87bcdc" stroke-width="1.51"/><path d="M624,525L686,622L768,522Z" fill="#82b9db" stroke="#82b9db" stroke-width="1.51"/><path d="M622,298L704,405L762,318Z" fill="#9cc8e1" stroke="#9cc8e1" stroke-width="1.51"/><path d="M704,405L624,525L744,439Z" fill="#8ec0de" stroke="#8ec0de" stroke-width="1.51"/><path d="M616,-25L657,90L745,64Z" fill="#b8d6ea" stroke="#b8d6ea" stroke-width="1.51"/><path d="M745,64L657,90L746,137Z" fill="#b2d2e8" stroke="#b2d2e8" stroke-width="1.51"/><path d="M657,90L697,164L746,137Z" fill="#b0d1e8" stroke="#b0d1e8" stroke-width="1.51"/><path d="M558,1061L638,1065L650,852Z" fill="#6a98c8" stroke="#6a98c8" stroke-width="1.51"/><path d="M545,856L558,1061L650,852Z" fill="#6f9fce" stroke="#6f9fce" stroke-width="1.51"/><path d="M635,1100L583,1155L668,1239Z" fill="#6388ba" stroke="#6388ba" stroke-width="1.51"/><path d="M543,703L620,781L686,622Z" fill="#7bb1d6" stroke="#7bb1d6" stroke-width="1.51"/><path d="M544,206L622,298L697,164Z" fill="#add0e6" stroke="#add0e6" stroke-width="1.51"/><path d="M528,446L624,525L704,405Z" fill="#93c3df" stroke="#93c3df" stroke-width="1.51"/><path d="M622,298L528,446L704,405Z" fill="#9dc8e1" stroke="#9dc8e1" stroke-width="1.51"/><path d="M657,90L544,206L697,164Z" fill="#b4d3e8" stroke="#b4d3e8" stroke-width="1.51"/><path d="M624,525L543,703L686,622Z" fill="#82b7da" stroke="#82b7da" stroke-width="1.51"/><path d="M316,-199L411,-143L577,-170Z" fill="#d5e6f4" stroke="#d5e6f4" stroke-width="1.51"/><path d="M616,-25L536,18L657,90Z" fill="#bed9ec" stroke="#bed9ec" stroke-width="1.51"/><path d="M583,1155L506,1267L668,1239Z" fill="#6484b3" stroke="#6484b3" stroke-width="1.51"/><path d="M384,1243L265,1276L506,1267Z" fill="#7085b2" stroke="#7085b2" stroke-width="1.51"/><path d="M545,856L456,975L558,1061Z" fill="#739dcd" stroke="#739dcd" stroke-width="1.51"/><path d="M616,-138L553,-80L616,-25Z" fill="#c5deee" stroke="#c5deee" stroke-width="1.51"/><path d="M526,305L528,446L622,298Z" fill="#a5cce3" stroke="#a5cce3" stroke-width="1.51"/><path d="M536,18L544,206L657,90Z" fill="#bbd7eb" stroke="#bbd7eb" stroke-width="1.51"/><path d="M543,703L546,757L620,781Z" fill="#7aafd5" stroke="#7aafd5" stroke-width="1.51"/><path d="M530,498L543,703L624,525Z" fill="#89bcdc" stroke="#89bcdc" stroke-width="1.51"/><path d="M528,446L530,498L624,525Z" fill="#93c2e0" stroke="#93c2e0" stroke-width="1.51"/><path d="M620,781L545,856L650,852Z" fill="#74a7d1" stroke="#74a7d1" stroke-width="1.51"/><path d="M530,498L437,626L543,703Z" fill="#8bbbdc" stroke="#8bbbdc" stroke-width="1.51"/><path d="M558,1061L635,1100L638,1065Z" fill="#6891c3" stroke="#6891c3" stroke-width="1.51"/><path d="M558,1061L583,1155L635,1100Z" fill="#688ec1" stroke="#688ec1" stroke-width="1.51"/><path d="M546,757L545,856L620,781Z" fill="#78aad3" stroke="#78aad3" stroke-width="1.51"/><path d="M544,206L526,305L622,298Z" fill="#add0e6" stroke="#add0e6" stroke-width="1.51"/><path d="M577,-170L553,-80L616,-138Z" fill="#c9e0ef" stroke="#c9e0ef" stroke-width="1.51"/><path d="M553,-80L536,18L616,-25Z" fill="#c3dced" stroke="#c3dced" stroke-width="1.51"/><path d="M536,18L375,89L544,206Z" fill="#c1d9ed" stroke="#c1d9ed" stroke-width="1.51"/><path d="M375,89L375,156L544,206Z" fill="#c2d9ed" stroke="#c2d9ed" stroke-width="1.51"/><path d="M558,1061L453,1162L583,1155Z" fill="#6b8ec1" stroke="#6b8ec1" stroke-width="1.51"/><path d="M453,1162L506,1267L583,1155Z" fill="#6a88b8" stroke="#6a88b8" stroke-width="1.51"/><path d="M526,305L435,381L528,446Z" fill="#a5cce4" stroke="#a5cce4" stroke-width="1.51"/><path d="M411,-143L553,-80L577,-170Z" fill="#cee2f1" stroke="#cee2f1" stroke-width="1.51"/><path d="M440,805L545,856L546,757Z" fill="#7cabd4" stroke="#7cabd4" stroke-width="1.51"/><path d="M378,-105L536,18L553,-80Z" fill="#cae0f0" stroke="#cae0f0" stroke-width="1.51"/><path d="M456,975L453,1162L558,1061Z" fill="#7195c6" stroke="#7195c6" stroke-width="1.51"/><path d="M428,309L526,305L544,206Z" fill="#b1d1e7" stroke="#b1d1e7" stroke-width="1.51"/><path d="M411,-143L378,-105L553,-80Z" fill="#d1e3f2" stroke="#d1e3f2" stroke-width="1.51"/><path d="M392,548L437,626L530,498Z" fill="#93c0e0" stroke="#93c0e0" stroke-width="1.51"/><path d="M395,935L456,975L545,856Z" fill="#78a2d0" stroke="#78a2d0" stroke-width="1.51"/><path d="M440,805L395,935L545,856Z" fill="#7ca7d3" stroke="#7ca7d3" stroke-width="1.51"/><path d="M543,703L440,805L546,757Z" fill="#7eb0d6" stroke="#7eb0d6" stroke-width="1.51"/><path d="M375,156L428,309L544,206Z" fill="#b9d6ea" stroke="#b9d6ea" stroke-width="1.51"/><path d="M437,626L440,805L543,703Z" fill="#84b4d9" stroke="#84b4d9" stroke-width="1.51"/><path d="M428,309L435,381L526,305Z" fill="#add0e6" stroke="#add0e6" stroke-width="1.51"/><path d="M378,-105L375,89L536,18Z" fill="#cbdff0" stroke="#cbdff0" stroke-width="1.51"/><path d="M435,381L392,548L528,446Z" fill="#9ec8e3" stroke="#9ec8e3" stroke-width="1.51"/><path d="M528,446L392,548L530,498Z" fill="#98c4e1" stroke="#98c4e1" stroke-width="1.51"/><path d="M453,1162L384,1243L506,1267Z" fill="#6d87b6" stroke="#6d87b6" stroke-width="1.51"/><path d="M303,60L375,89L378,-105Z" fill="#cfe0f2" stroke="#cfe0f2" stroke-width="1.51"/><path d="M279,-44L303,60L378,-105Z" fill="#d3e3f3" stroke="#d3e3f3" stroke-width="1.51"/><path d="M322,461L392,548L435,381Z" fill="#a3c9e4" stroke="#a3c9e4" stroke-width="1.51"/><path d="M328,625L331,804L437,626Z" fill="#8eb9dd" stroke="#8eb9dd" stroke-width="1.51"/><path d="M437,626L331,804L440,805Z" fill="#87b4d9" stroke="#87b4d9" stroke-width="1.51"/><path d="M331,804L395,935L440,805Z" fill="#82abd5" stroke="#82abd5" stroke-width="1.51"/><path d="M253,1008L270,1169L453,1162Z" fill="#7a95c7" stroke="#7a95c7" stroke-width="1.51"/><path d="M253,1008L453,1162L456,975Z" fill="#7998ca" stroke="#7998ca" stroke-width="1.51"/><path d="M395,935L253,1008L456,975Z" fill="#7da0cf" stroke="#7da0cf" stroke-width="1.51"/><path d="M270,1169L384,1243L453,1162Z" fill="#748bbc" stroke="#748bbc" stroke-width="1.51"/><path d="M331,804L302,897L395,935Z" fill="#83a9d4" stroke="#83a9d4" stroke-width="1.51"/><path d="M375,156L278,192L428,309Z" fill="#bfd8ec" stroke="#bfd8ec" stroke-width="1.51"/><path d="M278,192L344,346L428,309Z" fill="#b9d5ea" stroke="#b9d5ea" stroke-width="1.51"/><path d="M428,309L344,346L435,381Z" fill="#afd1e7" stroke="#afd1e7" stroke-width="1.51"/><path d="M344,346L322,461L435,381Z" fill="#accfe6" stroke="#accfe6" stroke-width="1.51"/><path d="M392,548L328,625L437,626Z" fill="#94bfe0" stroke="#94bfe0" stroke-width="1.51"/><path d="M253,1008L224,1066L270,1169Z" fill="#7e99ca" stroke="#7e99ca" stroke-width="1.51"/><path d="M316,-199L378,-105L411,-143Z" fill="#d8e7f5" stroke="#d8e7f5" stroke-width="1.51"/><path d="M-207,-220L-13,-197L89,-219Z" fill="#edf5fc" stroke="#edf5fc" stroke-width="1.51"/><path d="M322,461L299,500L392,548Z" fill="#a0c7e4" stroke="#a0c7e4" stroke-width="1.51"/><path d="M302,897L253,1008L395,935Z" fill="#80a3d2" stroke="#80a3d2" stroke-width="1.51"/><path d="M299,500L328,625L392,548Z" fill="#9bc3e3" stroke="#9bc3e3" stroke-width="1.51"/><path d="M328,625L194,679L331,804Z" fill="#90badd" stroke="#90badd" stroke-width="1.51"/><path d="M375,89L303,60L375,156Z" fill="#caddf0" stroke="#caddf0" stroke-width="1.51"/><path d="M270,1169L265,1276L384,1243Z" fill="#758ab8" stroke="#758ab8" stroke-width="1.51"/><path d="M303,60L278,192L375,156Z" fill="#c9dcf0" stroke="#c9dcf0" stroke-width="1.51"/><path d="M316,-199L279,-44L378,-105Z" fill="#d8e7f5" stroke="#d8e7f5" stroke-width="1.51"/><path d="M224,1066L215,1117L270,1169Z" fill="#7e96c7" stroke="#7e96c7" stroke-width="1.51"/><path d="M89,-219L152,-160L316,-199Z" fill="#e3edf9" stroke="#e3edf9" stroke-width="1.51"/><path d="M199,-104L279,-44L316,-199Z" fill="#dbe8f6" stroke="#dbe8f6" stroke-width="1.51"/><path d="M299,500L222,538L328,625Z" fill="#9dc5e3" stroke="#9dc5e3" stroke-width="1.51"/><path d="M194,679L213,825L331,804Z" fill="#8db5db" stroke="#8db5db" stroke-width="1.51"/><path d="M278,192L141,297L344,346Z" fill="#bdd8ec" stroke="#bdd8ec" stroke-width="1.51"/><path d="M185,436L322,461L344,346Z" fill="#adcfe7" stroke="#adcfe7" stroke-width="1.51"/><path d="M141,297L185,436L344,346Z" fill="#b6d5e9" stroke="#b6d5e9" stroke-width="1.51"/><path d="M213,825L302,897L331,804Z" fill="#88aed7" stroke="#88aed7" stroke-width="1.51"/><path d="M193,67L278,192L303,60Z" fill="#cde0f1" stroke="#cde0f1" stroke-width="1.51"/><path d="M222,538L194,679L328,625Z" fill="#9ac2e1" stroke="#9ac2e1" stroke-width="1.51"/><path d="M185,436L299,500L322,461Z" fill="#a8cce5" stroke="#a8cce5" stroke-width="1.51"/><path d="M148,226L141,297L278,192Z" fill="#c4dbee" stroke="#c4dbee" stroke-width="1.51"/><path d="M279,-44L193,67L303,60Z" fill="#d2e2f3" stroke="#d2e2f3" stroke-width="1.51"/><path d="M152,-160L199,-104L316,-199Z" fill="#dfebf7" stroke="#dfebf7" stroke-width="1.51"/><path d="M201,1253L107,1295L265,1276Z" fill="#7888b4" stroke="#7888b4" stroke-width="1.51"/><path d="M201,1253L265,1276L270,1169Z" fill="#778bb9" stroke="#778bb9" stroke-width="1.51"/><path d="M185,436L222,538L299,500Z" fill="#a6cbe6" stroke="#a6cbe6" stroke-width="1.51"/><path d="M142,859L253,1008L302,897Z" fill="#85a8d4" stroke="#85a8d4" stroke-width="1.51"/><path d="M213,825L142,859L302,897Z" fill="#89aed7" stroke="#89aed7" stroke-width="1.51"/><path d="M193,67L148,226L278,192Z" fill="#cbdef0" stroke="#cbdef0" stroke-width="1.51"/><path d="M199,-104L193,67L279,-44Z" fill="#d7e6f5" stroke="#d7e6f5" stroke-width="1.51"/><path d="M215,1117L201,1253L270,1169Z" fill="#7b90c0" stroke="#7b90c0" stroke-width="1.51"/><path d="M94,159L148,226L193,67Z" fill="#cfe0f2" stroke="#cfe0f2" stroke-width="1.51"/><path d="M41,975L224,1066L253,1008Z" fill="#84a1cf" stroke="#84a1cf" stroke-width="1.51"/><path d="M142,859L41,975L253,1008Z" fill="#88a8d4" stroke="#88a8d4" stroke-width="1.51"/><path d="M40,453L20,538L185,436Z" fill="#aed0e8" stroke="#aed0e8" stroke-width="1.51"/><path d="M20,538L56,686L194,679Z" fill="#9ec4e2" stroke="#9ec4e2" stroke-width="1.51"/><path d="M81,31L193,67L199,-104Z" fill="#d8e7f4" stroke="#d8e7f4" stroke-width="1.51"/><path d="M194,679L63,752L213,825Z" fill="#92b9dd" stroke="#92b9dd" stroke-width="1.51"/><path d="M63,752L142,859L213,825Z" fill="#90b5da" stroke="#90b5da" stroke-width="1.51"/><path d="M25,1167L201,1253L215,1117Z" fill="#7e93c1" stroke="#7e93c1" stroke-width="1.51"/><path d="M20,538L194,679L222,538Z" fill="#a0c6e4" stroke="#a0c6e4" stroke-width="1.51"/><path d="M185,436L20,538L222,538Z" fill="#a8cde7" stroke="#a8cde7" stroke-width="1.51"/><path d="M41,975L215,1117L224,1066Z" fill="#839ecc" stroke="#839ecc" stroke-width="1.51"/><path d="M25,1167L107,1295L201,1253Z" fill="#7d8eb9" stroke="#7d8eb9" stroke-width="1.51"/><path d="M41,975L25,1167L215,1117Z" fill="#859ccb" stroke="#859ccb" stroke-width="1.51"/><path d="M141,297L83,315L185,436Z" fill="#bbd8eb" stroke="#bbd8eb" stroke-width="1.51"/><path d="M56,686L63,752L194,679Z" fill="#97bfdf" stroke="#97bfdf" stroke-width="1.51"/><path d="M152,-160L24,-14L199,-104Z" fill="#dfebf7" stroke="#dfebf7" stroke-width="1.51"/><path d="M24,-14L81,31L199,-104Z" fill="#dce9f6" stroke="#dce9f6" stroke-width="1.51"/><path d="M81,31L94,159L193,67Z" fill="#d4e4f4" stroke="#d4e4f4" stroke-width="1.51"/><path d="M83,315L40,453L185,436Z" fill="#b6d5ea" stroke="#b6d5ea" stroke-width="1.51"/><path d="M26,932L41,975L142,859Z" fill="#8cacd7" stroke="#8cacd7" stroke-width="1.51"/><path d="M83,315L141,297L148,226Z" fill="#c3dced" stroke="#c3dced" stroke-width="1.51"/><path d="M89,-219L-13,-197L152,-160Z" fill="#e7f0fa" stroke="#e7f0fa" stroke-width="1.51"/><path d="M-13,-197L24,-14L152,-160Z" fill="#e3eef9" stroke="#e3eef9" stroke-width="1.51"/><path d="M94,159L83,315L148,226Z" fill="#c8deef" stroke="#c8deef" stroke-width="1.51"/><path d="M63,752L26,932L142,859Z" fill="#90b3da" stroke="#90b3da" stroke-width="1.51"/><path d="M-13,-197L-60,-58L24,-14Z" fill="#e4eff9" stroke="#e4eff9" stroke-width="1.51"/><path d="M-80,1033L25,1167L41,975Z" fill="#8aa1ce" stroke="#8aa1ce" stroke-width="1.51"/><path d="M-51,897L26,932L63,752Z" fill="#92b4da" stroke="#92b4da" stroke-width="1.51"/><path d="M81,31L-54,104L94,159Z" fill="#d6e5f5" stroke="#d6e5f5" stroke-width="1.51"/><path d="M-36,186L83,315L94,159Z" fill="#cce0f0" stroke="#cce0f0" stroke-width="1.51"/><path d="M25,1167L-76,1267L107,1295Z" fill="#808fba" stroke="#808fba" stroke-width="1.51"/><path d="M-54,104L-36,186L94,159Z" fill="#d5e4f4" stroke="#d5e4f4" stroke-width="1.51"/><path d="M-66,751L-51,897L63,752Z" fill="#97b9dd" stroke="#97b9dd" stroke-width="1.51"/><path d="M-95,298L40,453L83,315Z" fill="#bfdbec" stroke="#bfdbec" stroke-width="1.51"/><path d="M-36,186L-95,298L83,315Z" fill="#c9e0f0" stroke="#c9e0f0" stroke-width="1.51"/><path d="M24,-14L-54,104L81,31Z" fill="#dbe8f6" stroke="#dbe8f6" stroke-width="1.51"/><path d="M-80,1033L-71,1156L25,1167Z" fill="#899dcb" stroke="#899dcb" stroke-width="1.51"/><path d="M-95,298L-103,460L40,453Z" fill="#bcd9ec" stroke="#bcd9ec" stroke-width="1.51"/><path d="M20,538L-80,549L56,686Z" fill="#a6cae6" stroke="#a6cae6" stroke-width="1.51"/><path d="M-80,549L-84,702L56,686Z" fill="#a3c7e4" stroke="#a3c7e4" stroke-width="1.51"/><path d="M56,686L-66,751L63,752Z" fill="#9abfdf" stroke="#9abfdf" stroke-width="1.51"/><path d="M-84,702L-66,751L56,686Z" fill="#9dc1e1" stroke="#9dc1e1" stroke-width="1.51"/><path d="M-71,1156L-76,1267L25,1167Z" fill="#8595c1" stroke="#8595c1" stroke-width="1.51"/><path d="M-103,460L20,538L40,453Z" fill="#b1d2e9" stroke="#b1d2e9" stroke-width="1.51"/><path d="M26,932L-80,1033L41,975Z" fill="#8da9d4" stroke="#8da9d4" stroke-width="1.51"/><path d="M-103,460L-80,549L20,538Z" fill="#b0d1e9" stroke="#b0d1e9" stroke-width="1.51"/><path d="M-60,-58L-54,104L24,-14Z" fill="#dfebf7" stroke="#dfebf7" stroke-width="1.51"/><path d="M-51,897L-80,1033L26,932Z" fill="#90acd6" stroke="#90acd6" stroke-width="1.51"/><path d="M-151,347L-103,460L-95,298Z" fill="#c3ddee" stroke="#c3ddee" stroke-width="1.51"/><path d="M-60,-58L-188,17L-54,104Z" fill="#e1edf8" stroke="#e1edf8" stroke-width="1.51"/><path d="M-66,751L-138,773L-51,897Z" fill="#9abbde" stroke="#9abbde" stroke-width="1.51"/><path d="M-168,-101L-60,-58L-13,-197Z" fill="#e9f2fa" stroke="#e9f2fa" stroke-width="1.51"/><path d="M-207,-220L-168,-101L-13,-197Z" fill="#eef5fc" stroke="#eef5fc" stroke-width="1.51"/><path d="M-178,909L-179,1009L-80,1033Z" fill="#93acd5" stroke="#93acd5" stroke-width="1.51"/><path d="M-172,678L-84,702L-80,549Z" fill="#a6c9e5" stroke="#a6c9e5" stroke-width="1.51"/><path d="M-178,909L-80,1033L-51,897Z" fill="#93aed7" stroke="#93aed7" stroke-width="1.51"/><path d="M-54,104L-165,180L-36,186Z" fill="#d8e6f5" stroke="#d8e6f5" stroke-width="1.51"/><path d="M-165,180L-95,298L-36,186Z" fill="#d2e4f2" stroke="#d2e4f2" stroke-width="1.51"/><path d="M-179,1237L-76,1267L-71,1156Z" fill="#8795bf" stroke="#8795bf" stroke-width="1.51"/><path d="M-138,773L-178,909L-51,897Z" fill="#98b7dc" stroke="#98b7dc" stroke-width="1.51"/><path d="M-179,1009L-222,1158L-80,1033Z" fill="#90a4d0" stroke="#90a4d0" stroke-width="1.51"/><path d="M-188,550L-172,678L-80,549Z" fill="#accde8" stroke="#accde8" stroke-width="1.51"/><path d="M-80,1033L-222,1158L-71,1156Z" fill="#8d9fcc" stroke="#8d9fcc" stroke-width="1.51"/><path d="M-188,17L-165,180L-54,104Z" fill="#ddeaf7" stroke="#ddeaf7" stroke-width="1.51"/><path d="M-151,347L-154,451L-103,460Z" fill="#bedaec" stroke="#bedaec" stroke-width="1.51"/><path d="M-168,-101L-188,17L-60,-58Z" fill="#e7f0fa" stroke="#e7f0fa" stroke-width="1.51"/><path d="M-84,702L-138,773L-66,751Z" fill="#9ec1e0" stroke="#9ec1e0" stroke-width="1.51"/><path d="M-103,460L-188,550L-80,549Z" fill="#b2d3ea" stroke="#b2d3ea" stroke-width="1.51"/><path d="M-222,1158L-179,1237L-71,1156Z" fill="#8b9ac4" stroke="#8b9ac4" stroke-width="1.51"/><path d="M-154,451L-188,550L-103,460Z" fill="#b7d6eb" stroke="#b7d6eb" stroke-width="1.51"/><path d="M-172,678L-138,773L-84,702Z" fill="#a1c3e2" stroke="#a1c3e2" stroke-width="1.51"/><path d="M-165,180L-151,347L-95,298Z" fill="#cee2f1" stroke="#cee2f1" stroke-width="1.51"/><path d="M-172,678L-178,909L-138,773Z" fill="#9fbee0" stroke="#9fbee0" stroke-width="1.51"/><path d="M-188,550L-154,451L-151,347Z" fill="#bcd9ec" stroke="#bcd9ec" stroke-width="1.51"/><path d="M-165,180L-188,550L-151,347Z" fill="#c7dfee" stroke="#c7dfee" stroke-width="1.51"/><path d="M-188,17L-188,550L-165,180Z" fill="#d2e5f3" stroke="#d2e5f3" stroke-width="1.51"/><path d="M-207,-220L-188,17L-168,-101Z" fill="#ecf4fb" stroke="#ecf4fb" stroke-width="1.51"/><path d="M-188,550L-222,1158L-178,909Z" fill="#9bb8dc" stroke="#9bb8dc" stroke-width="1.51"/><path d="M-188,550L-178,909L-172,678Z" fill="#a4c5e3" stroke="#a4c5e3" stroke-width="1.51"/><path d="M-222,1158L-179,1009L-178,909Z" fill="#94a9d4" stroke="#94a9d4" stroke-width="1.51"/><path d="M-188,17L-207,-220L-188,550Z" fill="#dfebf7" stroke="#dfebf7" stroke-width="1.51"/><path d="M-207,-220L-222,1158L-188,550Z" fill="#b8d6ec" stroke="#b8d6ec" stroke-width="1.51"/></svg>